<svg width="762" height="252" viewBox="0 0 762 252" fill="none" xmlns="http://www.w3.org/2000/svg">
<g id="keyboard">
<g id="Group">
<path id="Vector" d="M737.763 251H24.2374C11.4035 251 1 242.691 1 232.441V19.559C1 9.30895 11.4035 1 24.2374 1H737.763C750.596 1 761 9.30895 761 19.559V232.441C761 242.691 750.596 251 737.763 251Z" fill="#111111"/>
<path id="Vector_2" d="M761 19.559V232.441C761 242.692 750.598 251 737.762 251H730.928C743.763 251 754.165 242.692 754.165 232.441V19.559C754.165 9.30786 743.763 1 730.928 1H737.762C750.598 1 761 9.30786 761 19.559Z" fill="#111111"/>
<path id="Vector_3" d="M125.389 42.4848H92.5829C89.5634 42.4848 87.1152 40.5296 87.1152 38.118V11.9171C87.1152 9.50553 89.5634 7.55029 92.5829 7.55029H125.389C128.408 7.55029 130.856 9.50553 130.856 11.9171V38.118C130.856 40.5296 128.408 42.4848 125.389 42.4848Z" fill="#111111"/>
<path id="Vector_4" d="M80.2803 38.118V11.9171C80.2803 9.50553 77.8322 7.55029 74.8127 7.55029H25.604C16.5456 7.55029 9.20117 13.416 9.20117 20.6507V38.118C9.20117 40.5296 11.6493 42.4848 14.6688 42.4848H74.8127C77.8322 42.4848 80.2803 40.5296 80.2803 38.118Z" fill="#111111"/>
<path id="Vector_5" d="M182.798 38.118V11.9171C182.798 9.50553 180.35 7.55029 177.33 7.55029H144.524C141.505 7.55029 139.057 9.50553 139.057 11.9171V38.118C139.057 40.5296 141.505 42.4848 144.524 42.4848H177.33C180.35 42.4848 182.798 40.5296 182.798 38.118Z" fill="#111111"/>
<path id="Vector_6" d="M234.741 38.118V11.9171C234.741 9.50553 232.293 7.55029 229.273 7.55029H196.468C193.448 7.55029 191 9.50553 191 11.9171V38.118C191 40.5296 193.448 42.4848 196.468 42.4848H229.273C232.293 42.4848 234.741 40.5296 234.741 38.118Z" fill="#111111"/>
<path id="Vector_7" d="M286.684 38.118V11.9171C286.684 9.50553 284.236 7.55029 281.217 7.55029H248.411C245.391 7.55029 242.943 9.50553 242.943 11.9171V38.118C242.943 40.5296 245.391 42.4848 248.411 42.4848H281.217C284.236 42.4848 286.684 40.5296 286.684 38.118Z" fill="#111111"/>
<path id="Vector_8" d="M338.626 38.118V11.9171C338.626 9.50553 336.178 7.55029 333.158 7.55029H300.352C297.333 7.55029 294.885 9.50553 294.885 11.9171V38.118C294.885 40.5296 297.333 42.4848 300.352 42.4848H333.158C336.179 42.4848 338.626 40.5296 338.626 38.118Z" fill="#111111"/>
<path id="Vector_9" d="M390.569 38.118V11.9171C390.569 9.50553 388.121 7.55029 385.102 7.55029H352.296C349.276 7.55029 346.828 9.50553 346.828 11.9171V38.118C346.828 40.5296 349.276 42.4848 352.296 42.4848H385.102C388.121 42.4848 390.569 40.5296 390.569 38.118Z" fill="#111111"/>
<path id="Vector_10" d="M442.511 38.118V11.9171C442.511 9.50553 440.062 7.55029 437.043 7.55029H404.237C401.218 7.55029 398.77 9.50553 398.77 11.9171V38.118C398.77 40.5296 401.218 42.4848 404.237 42.4848H437.043C440.062 42.4848 442.511 40.5296 442.511 38.118Z" fill="#111111"/>
<path id="Vector_11" d="M494.454 38.118V11.9171C494.454 9.50553 492.006 7.55029 488.986 7.55029H456.181C453.161 7.55029 450.713 9.50553 450.713 11.9171V38.118C450.713 40.5296 453.161 42.4848 456.181 42.4848H488.986C492.006 42.4848 494.454 40.5296 494.454 38.118Z" fill="#111111"/>
<path id="Vector_12" d="M546.395 38.118V11.9171C546.395 9.50553 543.947 7.55029 540.928 7.55029H508.122C505.102 7.55029 502.654 9.50553 502.654 11.9171V38.118C502.654 40.5296 505.102 42.4848 508.122 42.4848H540.928C543.947 42.4848 546.395 40.5296 546.395 38.118Z" fill="#111111"/>
<path id="Vector_13" d="M598.339 38.118V11.9171C598.339 9.50553 595.891 7.55029 592.871 7.55029H560.065C557.046 7.55029 554.598 9.50553 554.598 11.9171V38.118C554.598 40.5296 557.046 42.4848 560.065 42.4848H592.871C595.891 42.4848 598.339 40.5296 598.339 38.118Z" fill="#111111"/>
<path id="Vector_14" d="M650.28 38.118V11.9171C650.28 9.50553 647.832 7.55029 644.812 7.55029H612.007C608.987 7.55029 606.539 9.50553 606.539 11.9171V38.118C606.539 40.5296 608.987 42.4848 612.007 42.4848H644.812C647.832 42.4848 650.28 40.5296 650.28 38.118Z" fill="#111111"/>
<path id="Vector_15" d="M702.223 38.118V11.9171C702.223 9.50553 699.775 7.55029 696.756 7.55029H663.95C660.931 7.55029 658.482 9.50553 658.482 11.9171V38.118C658.482 40.5296 660.931 42.4848 663.95 42.4848H696.756C699.775 42.4848 702.223 40.5296 702.223 38.118Z" fill="#111111"/>
<path id="Vector_16" d="M104.886 78.5108V52.3099C104.886 49.8984 102.437 47.9431 99.4179 47.9431H66.6122C63.5927 47.9431 61.1445 49.8984 61.1445 52.3099V78.5108C61.1445 80.9224 63.5927 82.8776 66.6122 82.8776H99.4179C102.437 82.8776 104.886 80.9224 104.886 78.5108Z" fill="#111111"/>
<path id="Vector_17" d="M52.9422 78.5108V52.3099C52.9422 49.8984 50.4941 47.9431 47.4746 47.9431H14.6688C11.6493 47.9431 9.20117 49.8984 9.20117 52.3099V78.5108C9.20117 80.9224 11.6493 82.8776 14.6688 82.8776H47.4746C50.4941 82.8776 52.9422 80.9224 52.9422 78.5108Z" fill="#111111"/>
<path id="Vector_18" d="M156.827 78.5108V52.3099C156.827 49.8984 154.379 47.9431 151.359 47.9431H118.554C115.534 47.9431 113.086 49.8984 113.086 52.3099V78.5108C113.086 80.9224 115.534 82.8776 118.554 82.8776H151.359C154.379 82.8776 156.827 80.9224 156.827 78.5108Z" fill="#111111"/>
<path id="Vector_19" d="M208.77 78.5108V52.3099C208.77 49.8984 206.322 47.9431 203.303 47.9431H170.497C167.477 47.9431 165.029 49.8984 165.029 52.3099V78.5108C165.029 80.9224 167.477 82.8776 170.497 82.8776H203.303C206.322 82.8776 208.77 80.9224 208.77 78.5108Z" fill="#111111"/>
<path id="Vector_20" d="M260.712 78.5108V52.3099C260.712 49.8984 258.264 47.9431 255.244 47.9431H222.438C219.419 47.9431 216.971 49.8984 216.971 52.3099V78.5108C216.971 80.9224 219.419 82.8776 222.438 82.8776H255.244C258.264 82.8776 260.712 80.9224 260.712 78.5108Z" fill="#111111"/>
<path id="Vector_21" d="M312.655 78.5108V52.3099C312.655 49.8984 310.207 47.9431 307.187 47.9431H274.382C271.362 47.9431 268.914 49.8984 268.914 52.3099V78.5108C268.914 80.9224 271.362 82.8776 274.382 82.8776H307.187C310.208 82.8776 312.655 80.9224 312.655 78.5108Z" fill="#111111"/>
<path id="Vector_22" d="M364.596 78.5108V52.3099C364.596 49.8984 362.148 47.9431 359.129 47.9431H326.323C323.304 47.9431 320.855 49.8984 320.855 52.3099V78.5108C320.855 80.9224 323.304 82.8776 326.323 82.8776H359.129C362.148 82.8776 364.596 80.9224 364.596 78.5108Z" fill="#111111"/>
<path id="Vector_23" d="M416.54 78.5108V52.3099C416.54 49.8984 414.092 47.9431 411.072 47.9431H378.266C375.247 47.9431 372.799 49.8984 372.799 52.3099V78.5108C372.799 80.9224 375.247 82.8776 378.266 82.8776H411.072C414.092 82.8776 416.54 80.9224 416.54 78.5108Z" fill="#111111"/>
<path id="Vector_24" d="M468.481 78.5108V52.3099C468.481 49.8984 466.033 47.9431 463.014 47.9431H430.208C427.188 47.9431 424.74 49.8984 424.74 52.3099V78.5108C424.74 80.9224 427.188 82.8776 430.208 82.8776H463.014C466.033 82.8776 468.481 80.9224 468.481 78.5108Z" fill="#111111"/>
<path id="Vector_25" d="M520.425 78.5108V52.3099C520.425 49.8984 517.976 47.9431 514.957 47.9431H482.151C479.132 47.9431 476.684 49.8984 476.684 52.3099V78.5108C476.684 80.9224 479.132 82.8776 482.151 82.8776H514.957C517.976 82.8776 520.425 80.9224 520.425 78.5108Z" fill="#111111"/>
<path id="Vector_26" d="M572.366 78.5108V52.3099C572.366 49.8984 569.918 47.9431 566.898 47.9431H534.093C531.073 47.9431 528.625 49.8984 528.625 52.3099V78.5108C528.625 80.9224 531.073 82.8776 534.093 82.8776H566.898C569.918 82.8776 572.366 80.9224 572.366 78.5108Z" fill="#111111"/>
<path id="Vector_27" d="M624.309 78.5108V52.3099C624.309 49.8984 621.861 47.9431 618.842 47.9431H586.036C583.016 47.9431 580.568 49.8984 580.568 52.3099V78.5108C580.568 80.9224 583.016 82.8776 586.036 82.8776H618.842C621.861 82.8776 624.309 80.9224 624.309 78.5108Z" fill="#111111"/>
<path id="Vector_28" d="M676.253 78.5108V52.3099C676.253 49.8984 673.805 47.9431 670.785 47.9431H637.979C634.96 47.9431 632.512 49.8984 632.512 52.3099V78.5108C632.512 80.9224 634.96 82.8776 637.979 82.8776H670.785C673.805 82.8776 676.253 80.9224 676.253 78.5108Z" fill="#111111"/>
<g id="deleteKey">
<path id="Vector_29" d="M754.165 78.5108V52.3099C754.165 49.8984 751.717 47.9431 748.697 47.9431H688.554C685.534 47.9431 683.086 49.8984 683.086 52.3099V78.5108C683.086 80.9224 685.534 82.8776 688.554 82.8776H748.697C751.717 82.8776 754.165 80.9224 754.165 78.5108Z" fill="#111111"/>
</g>
<path id="Vector_30" d="M715.891 123.271H748.697C751.717 123.271 754.165 121.315 754.165 118.904V92.703C754.165 90.2914 751.717 88.3362 748.697 88.3362H715.891C712.872 88.3362 710.424 90.2914 710.424 92.703V118.904C710.424 121.315 712.872 123.271 715.891 123.271Z" fill="#111111"/>
<path id="Vector_31" d="M612.007 123.271H644.812C647.832 123.271 650.28 121.315 650.28 118.904V92.703C650.28 90.2914 647.832 88.3362 644.812 88.3362H612.007C608.987 88.3362 606.539 90.2914 606.539 92.703V118.904C606.539 121.315 608.987 123.271 612.007 123.271Z" fill="#111111"/>
<g id="oKey">
<path id="Vector_32" d="M508.122 123.271H540.928C543.947 123.271 546.395 121.315 546.395 118.904V92.703C546.395 90.2914 543.947 88.3362 540.928 88.3362H508.122C505.102 88.3362 502.654 90.2914 502.654 92.703V118.904C502.654 121.315 505.102 123.271 508.122 123.271Z" fill="#111111"/>
<path id="Vector_33" d="M522.673 100.384C521.614 100.916 520.784 101.842 520.326 102.952C519.896 103.971 519.896 107.997 520.297 109.015C521.07 110.889 522.787 112 524.848 112C528.168 112 530 109.848 530 105.984C530 103.346 529.17 101.587 527.481 100.546C526.394 99.8979 523.818 99.8054 522.673 100.384ZM526.651 101.819C527.682 102.466 528.111 103.693 528.111 105.984C528.111 107.071 527.939 108.344 527.739 108.807C526.68 111.329 522.902 111.167 521.986 108.552C521.614 107.465 521.614 104.48 521.986 103.392C522.587 101.633 525.048 100.8 526.651 101.819Z" fill="white" fill-opacity="0.6"/>
</g>
<g id="uKey">
<path id="Vector_34" d="M404.237 123.271H437.043C440.062 123.271 442.511 121.315 442.511 118.904V92.703C442.511 90.2914 440.062 88.3362 437.043 88.3362H404.237C401.218 88.3362 398.77 90.2914 398.77 92.703V118.904C398.77 121.315 401.218 123.271 404.237 123.271Z" fill="#111111"/>
<path id="Vector_35" d="M416.091 104.8C416.181 109.247 416.242 109.671 416.816 110.282C417.934 111.435 419.293 112 421.015 112C422.918 112 424.338 111.341 425.305 110C425.94 109.106 426 108.776 426 104.518V100H425.094H424.187V104.118C424.187 108.941 423.915 109.835 422.163 110.471C421.227 110.824 420.955 110.824 420.048 110.541C418.115 109.976 417.843 109.224 417.843 104.306V100H416.906H416L416.091 104.8Z" fill="white" fill-opacity="0.6"/>
</g>
<g id="yKey">
<path id="Vector_36" d="M352.296 123.271H385.102C388.121 123.271 390.569 121.315 390.569 118.904V92.703C390.569 90.2914 388.121 88.3362 385.102 88.3362H352.296C349.276 88.3362 346.828 90.2914 346.828 92.703V118.904C346.828 121.315 349.276 123.271 352.296 123.271Z" fill="#111111"/>
<path id="Vector_37" d="M364.005 100.149C363.922 100.243 364.842 101.983 366.07 104.029L368.274 107.768V109.884V112H369.111H369.949V109.766V107.533L372.041 103.982C373.213 102.054 374.078 100.361 373.994 100.243C373.687 99.7967 372.488 100.008 372.069 100.526C371.846 100.831 371.148 102.101 370.479 103.371C369.837 104.64 369.167 105.628 369.028 105.581C368.888 105.557 368.135 104.358 367.381 102.947C366.628 101.537 365.847 100.29 365.679 100.196C365.261 99.9848 364.256 99.9613 364.005 100.149Z" fill="white" fill-opacity="0.6"/>
</g>
<g id="rKey">
<path id="Vector_38" d="M248.411 123.271H281.217C284.236 123.271 286.684 121.315 286.684 118.904V92.703C286.684 90.2914 284.236 88.3362 281.217 88.3362H248.411C245.391 88.3362 242.943 90.2914 242.943 92.703V118.904C242.943 121.315 245.391 123.271 248.411 123.271Z" fill="#111111"/>
</g>
<g id="eKey">
<path id="Vector_39" d="M196.468 123.271H229.273C232.293 123.271 234.741 121.315 234.741 118.904V92.703C234.741 90.2914 232.293 88.3362 229.273 88.3362H196.468C193.448 88.3362 191 90.2914 191 92.703V118.904C191 121.315 193.448 123.271 196.468 123.271Z" fill="#111111"/>
<path id="Vector_40" d="M208.063 105.988L208.159 112H213.079C217.778 112 218 111.976 218 111.525C218 111.073 217.746 111.05 214.19 110.931L210.381 110.812L210.286 108.721L210.19 106.653H213.556H216.921L216.825 105.988L216.73 105.347L213.492 105.275L210.222 105.204V103.327V101.426H214.032H217.841V100.713V100H212.921H208L208.063 105.988Z" fill="white" fill-opacity="0.6"/>
</g>
<path id="Vector_41" d="M676.253 163.664H748.699C751.718 163.664 754.166 161.709 754.166 159.297V133.096C754.166 130.684 751.718 128.729 748.699 128.729H676.253C673.233 128.729 670.785 130.684 670.785 133.096V159.297C670.785 161.709 673.233 163.664 676.253 163.664Z" fill="#111111"/>
<path id="Vector_42" d="M14.6688 163.664H87.1148C90.1343 163.664 92.5825 161.709 92.5825 159.297V133.096C92.5825 130.684 90.1343 128.729 87.1148 128.729H14.6688C11.6493 128.729 9.20117 130.684 9.20117 133.096V159.297C9.20117 161.709 11.6493 163.664 14.6688 163.664Z" fill="#111111"/>
<path id="Vector_43" d="M572.366 163.664H605.172C608.191 163.664 610.639 161.709 610.639 159.297V133.096C610.639 130.684 608.191 128.729 605.172 128.729H572.366C569.347 128.729 566.898 130.684 566.898 133.096V159.297C566.898 161.709 569.347 163.664 572.366 163.664Z" fill="#111111"/>
<g id="kKey">
<path id="Vector_44" d="M468.481 163.664H501.287C504.307 163.664 506.755 161.709 506.755 159.297V133.096C506.755 130.684 504.307 128.729 501.287 128.729H468.481C465.462 128.729 463.014 130.684 463.014 133.096V159.297C463.014 161.709 465.46 163.664 468.481 163.664Z" fill="#111111"/>
<path id="Vector_45" d="M480.2 140.141C480.086 140.235 480 142.941 480 146.165V152H481H482V150.024C482 148.4 482.114 147.953 482.6 147.435C482.914 147.106 483.343 146.824 483.514 146.824C483.714 146.824 484.743 148 485.857 149.412C487.829 151.953 487.886 152 488.914 152C489.514 152 490 151.953 490 151.882C490 151.812 489 150.518 487.771 148.988C486.514 147.482 485.371 146.024 485.2 145.741C484.914 145.318 485.171 144.965 487.314 142.8C488.629 141.459 489.714 140.282 489.714 140.188C489.714 140.071 489.257 140 488.714 140C487.8 140 487.543 140.188 484.943 142.871L482.143 145.741L482 142.918C481.857 140.141 481.857 140.118 481.143 140.047C480.743 140 480.314 140.047 480.2 140.141Z" fill="white" fill-opacity="0.6"/>
</g>
<g id="jKey">
<path id="Vector_46" d="M416.54 163.664H449.346C452.365 163.664 454.813 161.709 454.813 159.297V133.096C454.813 130.684 452.365 128.729 449.346 128.729H416.54C413.52 128.729 411.072 130.684 411.072 133.096V159.297C411.072 161.709 413.52 163.664 416.54 163.664Z" fill="#111111"/>
<path id="Vector_47" d="M436.229 140.111C436.107 140.203 436.015 142.192 436.015 144.529C436.015 149.941 435.649 150.612 432.717 150.612C431.434 150.612 430.946 150.311 430.091 149.039C429.663 148.415 429.419 148.276 428.747 148.345C428.075 148.392 427.953 148.507 428.014 148.993C428.289 150.566 430.64 152 432.961 152C434.61 151.977 436.443 151.26 437.267 150.242C437.969 149.363 438 149.201 438 144.714V140.088L437.237 140.018C436.809 139.972 436.351 140.018 436.229 140.111Z" fill="white" fill-opacity="0.6"/>
</g>
<g id="gKey">
<path id="Vector_48" d="M312.655 163.664H345.461C348.48 163.664 350.929 161.709 350.929 159.297V133.096C350.929 130.684 348.48 128.729 345.461 128.729H312.655C309.636 128.729 307.188 130.684 307.188 133.096V159.297C307.188 161.709 309.636 163.664 312.655 163.664Z" fill="#111111"/>
<path id="Vector_49" d="M326.678 140.384C324.712 141.406 324 142.891 324 145.978C324 147.835 324.114 148.416 324.684 149.39C325.054 150.04 325.709 150.783 326.108 151.062C328.017 152.269 330.667 152.315 332.661 151.178L333.829 150.505L333.915 148.253L334 146.002H331.55C329.157 146.002 329.128 146.002 329.128 146.582C329.128 147.139 329.214 147.162 330.695 147.162H332.262V148.555C332.262 149.855 332.205 149.948 331.407 150.296C329.527 151.085 327.248 150.505 326.365 149.019C325.766 147.998 325.538 144.841 325.966 143.541C326.735 141.197 329.47 140.384 331.293 141.986C331.664 142.311 331.977 142.775 331.977 143.007C331.977 143.355 332.205 143.448 332.974 143.448C333.516 143.448 333.972 143.332 333.972 143.216C333.972 142.659 333.117 141.429 332.291 140.779C331.493 140.199 331.123 140.082 329.47 140.013C327.96 139.966 327.39 140.036 326.678 140.384Z" fill="white" fill-opacity="0.6"/>
</g>
<g id="dKey">
<path id="Vector_50" d="M208.77 163.664H241.576C244.596 163.664 247.044 161.709 247.044 159.297V133.096C247.044 130.684 244.596 128.729 241.576 128.729H208.77C205.751 128.729 203.303 130.684 203.303 133.096V159.297C203.303 161.709 205.751 163.664 208.77 163.664Z" fill="#111111"/>
<path id="Vector_51" d="M220 146V152H222.588C225.588 152 227.029 151.576 228.441 150.282C229.588 149.247 230 148.141 230 146.165C230 143.882 229.5 142.635 228.088 141.529C226.676 140.376 225.147 140 222.088 140H220V146ZM225.882 141.953C227.559 142.847 228.088 143.835 228.088 146.118C228.088 147.694 227.971 148.282 227.5 148.941C226.706 150.024 224.676 150.871 223.088 150.776L221.912 150.706L221.824 146.047L221.765 141.412H223.324C224.471 141.412 225.176 141.553 225.882 141.953Z" fill="white" fill-opacity="0.6"/>
</g>
<g id="sKey">
<path id="Vector_52" d="M156.827 163.664H189.633C192.652 163.664 195.1 161.709 195.1 159.297V133.096C195.1 130.684 192.652 128.729 189.633 128.729H156.827C153.808 128.729 151.359 130.684 151.359 133.096V159.297C151.359 161.709 153.808 163.664 156.827 163.664Z" fill="#111111"/>
<path id="Vector_53" d="M170.581 140.447C168.488 141.324 167.742 143.1 168.86 144.577C169.549 145.477 170.725 146.077 173.077 146.723C175.687 147.415 176.662 148.638 175.601 149.861C174.396 151.245 171.098 150.922 170.151 149.353C169.778 148.707 169.52 148.546 168.86 148.546C168.143 148.546 168 148.638 168 149.123C168 149.838 169.577 151.291 170.782 151.684C172.159 152.168 174.425 152.076 175.773 151.545C177.35 150.876 178.096 149.861 177.952 148.546C177.752 147.138 176.26 146.031 173.593 145.315C172.503 145.015 171.327 144.554 170.954 144.254C169.491 143.077 170.667 141.393 172.933 141.393C174.396 141.393 175.256 141.808 175.744 142.777C176.031 143.354 176.26 143.47 177.092 143.47C178.038 143.47 178.096 143.423 177.924 142.824C177.235 140.539 173.306 139.27 170.581 140.447Z" fill="white" fill-opacity="0.6"/>
</g>
<path id="Vector_54" d="M651.647 204.057H748.698C751.717 204.057 754.165 202.102 754.165 199.69V173.489C754.165 171.078 751.717 169.122 748.698 169.122H651.647C648.628 169.122 646.18 171.078 646.18 173.489V199.69C646.18 202.102 648.628 204.057 651.647 204.057Z" fill="#111111"/>
<path id="Vector_55" d="M599.706 204.057H632.512C635.531 204.057 637.979 202.102 637.979 199.69V173.489C637.979 171.078 635.531 169.122 632.512 169.122H599.706C596.686 169.122 594.238 171.078 594.238 173.489V199.69C594.238 202.102 596.686 204.057 599.706 204.057Z" fill="#111111"/>
<path id="Vector_56" d="M547.763 204.057H580.568C583.588 204.057 586.036 202.102 586.036 199.69V173.489C586.036 171.078 583.588 169.122 580.568 169.122H547.763C544.743 169.122 542.295 171.078 542.295 173.489V199.69C542.295 202.102 544.743 204.057 547.763 204.057Z" fill="#111111"/>
<g id="mKey">
<path id="Vector_57" d="M443.878 204.057H476.684C479.703 204.057 482.151 202.102 482.151 199.69V173.489C482.151 171.078 479.703 169.122 476.684 169.122H443.878C440.858 169.122 438.41 171.078 438.41 173.489V199.69C438.41 202.102 440.857 204.057 443.878 204.057Z" fill="#111111"/>
<path id="Vector_58" d="M455.212 181.164C455.091 181.258 455 183.959 455 187.176V193H456.121H457.212L457 188.609C456.879 185.955 456.909 184.288 457.091 184.429C457.242 184.569 457.818 185.791 458.333 187.176C459.212 189.36 459.424 189.712 459.97 189.712C460.515 189.712 460.788 189.29 461.879 186.824L463.152 183.959V188.468L463.182 193H464.091H465V186.988V181L463.879 181.07L462.727 181.141L461.515 183.795C460.818 185.274 460.152 186.472 460 186.495C459.848 186.519 459.242 185.321 458.636 183.841L457.545 181.141L456.485 181.07C455.909 181.023 455.333 181.07 455.212 181.164Z" fill="white" fill-opacity="0.6"/>
</g>
<g id="bKey">
<path id="Vector_59" d="M339.993 204.057H372.799C375.818 204.057 378.266 202.102 378.266 199.69V173.489C378.266 171.078 375.818 169.122 372.799 169.122H339.993C336.974 169.122 334.525 171.078 334.525 173.489V199.69C334.525 202.102 336.974 204.057 339.993 204.057Z" fill="#111111"/>
<path id="Vector_60" d="M351.072 181.308C351.012 181.473 350.982 184.136 351.012 187.248L351.102 192.906L353.805 192.976C357.32 193.071 358.251 192.906 359.513 192.057C361.496 190.69 361.496 188.309 359.513 187.248L358.582 186.777L359.573 185.999C360.414 185.362 360.564 185.056 360.564 184.16C360.564 183.241 360.414 182.958 359.573 182.298C359.032 181.873 358.041 181.402 357.41 181.26C355.698 180.883 351.282 180.93 351.072 181.308ZM357.681 182.911C358.221 183.264 358.462 183.618 358.462 184.136C358.432 185.527 357.26 186.187 354.737 186.187H353.054V184.301V182.416H354.977C356.449 182.416 357.05 182.533 357.681 182.911ZM357.38 187.696C358.582 188.097 359.303 189.228 358.882 190.124C358.432 191.138 357.23 191.656 355.037 191.774L353.054 191.916V189.629V187.366H354.707C355.638 187.366 356.809 187.507 357.38 187.696Z" fill="white" fill-opacity="0.6"/>
</g>
<g id="cKey">
<path id="Vector_61" d="M236.108 204.057H268.914C271.934 204.057 274.382 202.102 274.382 199.69V173.489C274.382 171.078 271.934 169.122 268.914 169.122H236.108C233.089 169.122 230.641 171.078 230.641 173.489V199.69C230.641 202.102 233.089 204.057 236.108 204.057Z" fill="#111111"/>
<path id="Vector_62" d="M250.664 181.412C248.687 182.485 248 183.93 248 187.055C248.029 189.946 248.573 191.251 250.32 192.324C251.237 192.907 251.638 193 253.185 193C254.559 193 255.161 192.883 255.762 192.51C256.822 191.881 257.538 191.065 257.853 190.132C258.111 189.386 258.111 189.386 257.166 189.386C256.335 189.386 256.163 189.479 255.877 190.202C255.447 191.275 254.617 191.718 253.07 191.718C250.807 191.718 249.862 190.295 249.862 186.821C249.89 183.767 251.036 182.158 253.185 182.158C254.359 182.158 255.762 183.091 256.02 184.024C256.192 184.606 256.335 184.723 257.08 184.723C257.911 184.723 257.939 184.7 257.796 183.907C257.596 182.881 256.65 181.785 255.591 181.342C254.416 180.853 251.638 180.899 250.664 181.412Z" fill="white" fill-opacity="0.6"/>
</g>
<path id="Vector_63" d="M663.95 123.271H696.756C699.775 123.271 702.223 121.315 702.223 118.904V92.703C702.223 90.2914 699.775 88.3362 696.756 88.3362H663.95C660.931 88.3362 658.482 90.2914 658.482 92.703V118.904C658.482 121.315 660.931 123.271 663.95 123.271Z" fill="#111111"/>
<g id="pKey">
<path id="Vector_64" d="M560.065 123.271H592.871C595.891 123.271 598.339 121.315 598.339 118.904V92.703C598.339 90.2914 595.891 88.3362 592.871 88.3362H560.065C557.046 88.3362 554.598 90.2914 554.598 92.703V118.904C554.598 121.315 557.046 123.271 560.065 123.271Z" fill="#111111"/>
<path id="Vector_65" d="M572 106V112H572.909H573.818V109.553V107.129L576.334 107.012C578.303 106.941 579.122 106.8 580 106.353C582.849 105.012 582.607 101.6 579.576 100.424C578.758 100.094 577.758 100 575.273 100H572V106ZM579.152 101.953C579.667 102.424 579.879 102.894 579.879 103.553C579.879 105.176 578.152 106.024 575.182 105.835L573.97 105.765L573.879 103.435L573.788 101.129L576.121 101.224C578.212 101.294 578.515 101.365 579.152 101.953Z" fill="white" fill-opacity="0.6"/>
</g>
<g id="iKey">
<path id="Vector_66" d="M456.181 123.271H488.986C492.006 123.271 494.454 121.315 494.454 118.904V92.703C494.454 90.2914 492.006 88.3362 488.986 88.3362H456.181C453.161 88.3362 450.713 90.2914 450.713 92.703V118.904C450.713 121.315 453.16 123.271 456.181 123.271Z" fill="#111111"/>
<path id="Vector_67" d="M468.226 100.101C468.097 100.195 468 100.526 468 100.832C468 101.352 468.129 101.376 469.935 101.376H471.871L471.806 106.027L471.71 110.701L469.871 110.772C468.129 110.843 468 110.89 468 111.41V112H473H478V111.41C478 110.843 477.903 110.82 476.065 110.82H474.129V106.098V101.376H476.097C478.032 101.376 478.032 101.376 477.935 100.714L477.839 100.077L473.129 100.006C470.548 99.9825 468.355 100.03 468.226 100.101Z" fill="white" fill-opacity="0.6"/>
</g>
<g id="tKey">
<path id="Vector_68" d="M300.352 123.271H333.158C336.178 123.271 338.626 121.315 338.626 118.904V92.703C338.626 90.2914 336.178 88.3362 333.158 88.3362H300.352C297.333 88.3362 294.885 90.2914 294.885 92.703V118.904C294.885 121.315 297.333 123.271 300.352 123.271Z" fill="#111111"/>
<path id="Vector_69" d="M312 100.594C312 101.164 312.054 101.188 314.027 101.188H316.054L316.108 106.582L316.189 112H317H317.811L317.892 106.582L317.946 101.188H319.973C321.946 101.188 322 101.164 322 100.594V100H317H312V100.594Z" fill="white" fill-opacity="0.6"/>
</g>
<g id="wKey">
<path id="Vector_70" d="M144.524 123.271H177.33C180.35 123.271 182.798 121.315 182.798 118.904V92.703C182.798 90.2914 180.35 88.3362 177.33 88.3362H144.524C141.505 88.3362 139.057 90.2914 139.057 92.703V118.904C139.057 121.315 141.505 123.271 144.524 123.271Z" fill="#111111"/>
<path id="Vector_71" d="M156.015 100.214C155.936 100.355 156.174 102.706 156.546 105.456C157.474 112.509 157.341 111.992 158.376 111.992C159.384 111.992 159.251 112.368 160.285 106.632C160.551 105.198 160.842 103.999 160.948 103.999C161.108 103.999 161.691 106.397 162.328 109.993L162.672 111.874H163.574H164.476L165.298 106.044C165.749 102.847 166.067 100.167 165.988 100.12C165.723 99.8846 164.609 100.026 164.503 100.284C164.396 100.59 163.574 107.266 163.574 107.948C163.574 108.888 163.282 107.807 162.619 104.351C162.222 102.283 161.797 100.449 161.638 100.284C161.346 99.9552 160.498 99.9082 160.285 100.214C160.179 100.331 159.808 102.141 159.41 104.21C159.012 106.279 158.615 107.901 158.535 107.807C158.429 107.713 158.164 106.02 157.925 104.046C157.686 102.047 157.421 100.331 157.315 100.214C157.129 99.9317 156.227 99.9317 156.015 100.214Z" fill="white" fill-opacity="0.6"/>
</g>
<g id="qKey">
<path id="Vector_72" d="M92.5829 123.271H125.389C128.408 123.271 130.856 121.315 130.856 118.904V92.703C130.856 90.2914 128.408 88.3362 125.389 88.3362H92.5829C89.5634 88.3362 87.1152 90.2914 87.1152 92.703V118.904C87.1152 121.315 89.5634 123.271 92.5829 123.271Z" fill="#111111"/>
<path id="Vector_73" d="M106.36 100.546C104.659 101.404 104 102.681 104 105.235C104 107.091 104.082 107.45 104.713 108.368C105.646 109.725 106.634 110.224 108.775 110.384C110.229 110.503 110.695 110.623 111.683 111.262L112.891 112L113.522 111.561C114.071 111.202 114.126 111.082 113.796 110.902C111.958 109.905 111.848 109.785 112.177 109.446C114.345 107.271 114.427 103.04 112.342 101.224C110.805 99.9073 108.253 99.6079 106.36 100.546ZM110.366 101.444C111.409 101.843 111.958 103.14 111.958 105.215C111.958 108.109 111.08 109.206 108.802 109.206C106.799 109.206 105.646 107.73 105.646 105.215C105.646 103.519 106.058 102.481 107.018 101.783C107.869 101.184 109.296 101.025 110.366 101.444Z" fill="white" fill-opacity="0.6"/>
</g>
<path id="Vector_74" d="M624.309 163.664H657.115C660.135 163.664 662.583 161.709 662.583 159.297V133.096C662.583 130.684 660.135 128.729 657.115 128.729H624.309C621.29 128.729 618.842 130.684 618.842 133.096V159.297C618.842 161.709 621.29 163.664 624.309 163.664Z" fill="#111111"/>
<g id="lKey">
<path id="Vector_75" d="M520.425 163.664H553.23C556.25 163.664 558.698 161.709 558.698 159.297V133.096C558.698 130.684 556.25 128.729 553.23 128.729H520.425C517.405 128.729 514.957 130.684 514.957 133.096V159.297C514.957 161.709 517.405 163.664 520.425 163.664Z" fill="#111111"/>
<path id="Vector_76" d="M532 146V152H537H542V151.412V150.824H537.968H533.935V145.412V140H532.968H532V146Z" fill="white" fill-opacity="0.6"/>
</g>
<g id="hKey">
<path id="Vector_77" d="M364.597 163.664H397.402C400.422 163.664 402.87 161.709 402.87 159.297V133.096C402.87 130.684 400.422 128.729 397.402 128.729H364.597C361.577 128.729 359.129 130.684 359.129 133.096V159.297C359.129 161.709 361.577 163.664 364.597 163.664Z" fill="#111111"/>
<path id="Vector_78" d="M376 145.988V152H376.909H377.818V149.299V146.575L380.939 146.646L384.03 146.716L384.121 149.346L384.212 152H385.091H386L385.939 146.059L385.848 140.141L385.03 140.07L384.182 140V142.583V145.19H381H377.848L377.758 142.654L377.667 140.141L376.848 140.07L376 140V145.988Z" fill="white" fill-opacity="0.6"/>
</g>
<g id="fKey">
<path id="Vector_79" d="M260.712 163.664H293.518C296.537 163.664 298.985 161.709 298.985 159.297V133.096C298.985 130.684 296.537 128.729 293.518 128.729H260.712C257.692 128.729 255.244 130.684 255.244 133.096V159.297C255.244 161.709 257.692 163.664 260.712 163.664Z" fill="#111111"/>
<path id="Vector_80" d="M272.225 140.099C272.096 140.191 272 142.9 272 146.142V152H272.965H273.897L273.994 149.384L274.09 146.79L277.563 146.721C280.971 146.651 281.003 146.651 281.003 146.096C281.003 145.517 281.003 145.517 277.627 145.517C273.736 145.517 273.833 145.586 273.994 142.97L274.09 141.465L278.045 141.395L282 141.326L281.904 140.701L281.807 140.075L277.113 140.006C274.54 139.983 272.354 140.029 272.225 140.099Z" fill="white" fill-opacity="0.6"/>
</g>
<g id="aKey">
<path id="Vector_81" d="M104.886 163.664H137.691C140.711 163.664 143.159 161.709 143.159 159.297V133.096C143.159 130.684 140.711 128.729 137.691 128.729H104.886C101.866 128.729 99.418 130.684 99.418 133.096V159.297C99.418 161.709 101.866 163.664 104.886 163.664Z" fill="#111111"/>
<path id="Vector_82" d="M118.174 145.794C116.978 149.027 116 151.74 116 151.835C116 151.953 116.38 152 116.87 151.953C117.685 151.882 117.767 151.788 118.229 150.395L118.745 148.909L121.082 148.979L123.447 149.05L123.936 150.513C124.425 151.906 124.48 152 125.268 152C126.056 152 126.083 151.953 125.92 151.292C125.811 150.891 124.86 148.224 123.773 145.322C121.925 140.319 121.789 140.083 121.109 140.012C120.376 139.941 120.348 139.989 118.174 145.794ZM122.034 145.227C122.441 146.407 122.74 147.422 122.686 147.469C122.631 147.493 121.87 147.516 120.974 147.469L119.343 147.398L120.158 145.086C120.62 143.835 121.055 142.844 121.137 142.938C121.218 143.009 121.626 144.024 122.034 145.227Z" fill="white" fill-opacity="0.6"/>
</g>
<path id="Vector_83" d="M495.819 204.057H528.625C531.644 204.057 534.093 202.102 534.093 199.69V173.489C534.093 171.078 531.644 169.122 528.625 169.122H495.819C492.8 169.122 490.352 171.078 490.352 173.489V199.69C490.352 202.102 492.798 204.057 495.819 204.057Z" fill="#111111"/>
<g id="nKey">
<path id="Vector_84" d="M391.934 204.057H424.74C427.76 204.057 430.208 202.102 430.208 199.69V173.489C430.208 171.078 427.76 169.122 424.74 169.122H391.934C388.915 169.122 386.467 171.078 386.467 173.489V199.69C386.467 202.102 388.915 204.057 391.934 204.057Z" fill="#111111"/>
<path id="Vector_85" d="M403 187V193H404.061H405.121V188.812C405.152 183.894 404.909 183.847 408.515 189.282C410.939 192.953 411 193 412 193H413V187V181H412.091H411.182L411.152 182.576C411.121 183.471 411.03 185.4 410.909 186.882L410.727 189.588L408.394 186.059C405.121 181.118 405 181 403.909 181H403V187Z" fill="white" fill-opacity="0.6"/>
</g>
<g id="vKey">
<path id="Vector_86" d="M288.05 204.057H320.855C323.875 204.057 326.323 202.102 326.323 199.69V173.489C326.323 171.078 323.875 169.122 320.855 169.122H288.05C285.03 169.122 282.582 171.078 282.582 173.489V199.69C282.582 202.102 285.03 204.057 288.05 204.057Z" fill="#111111"/>
<path id="Vector_87" d="M299.011 181.242C298.927 181.359 299.344 182.77 299.928 184.346C300.54 185.945 301.514 188.532 302.07 190.107L303.127 193H304.072C304.628 193 304.99 192.882 304.99 192.694C304.99 192.553 305.935 189.943 307.076 186.909C308.216 183.899 309.078 181.336 308.994 181.218C308.744 180.842 307.52 180.983 307.242 181.406C307.103 181.642 306.603 182.982 306.102 184.416C304.295 189.778 304.1 190.225 303.877 190.037C303.766 189.919 303.015 187.92 302.237 185.616C301.458 183.288 300.651 181.312 300.485 181.195C299.984 180.936 299.205 180.96 299.011 181.242Z" fill="white" fill-opacity="0.6"/>
</g>
<g id="xKey">
<path id="Vector_88" d="M184.165 204.057H216.971C219.99 204.057 222.438 202.102 222.438 199.69V173.489C222.438 171.078 219.99 169.122 216.971 169.122H184.165C181.145 169.122 178.697 171.078 178.697 173.489V199.69C178.697 202.102 181.145 204.057 184.165 204.057Z" fill="#111111"/>
<path id="Vector_89" d="M196.27 181.282C196.27 181.471 197.051 182.741 198.022 184.153C198.992 185.541 199.774 186.835 199.774 187C199.774 187.165 198.938 188.529 197.887 190.035C196.863 191.541 196 192.835 196 192.882C196 192.953 196.458 193 197.024 193C197.995 193 198.049 192.953 199.477 190.718C201.121 188.153 200.852 188.106 202.739 191.071C203.925 192.953 203.978 193 204.976 193H206L205.137 191.635C204.652 190.906 203.79 189.635 203.224 188.812C202.658 188.012 202.199 187.188 202.199 187.024C202.199 186.835 202.981 185.541 203.951 184.106C204.922 182.694 205.704 181.4 205.704 181.259C205.704 181.118 205.353 181 204.922 181C204.032 181 203.709 181.329 202.065 183.894C201.526 184.765 200.987 185.424 200.879 185.353C200.798 185.282 200.097 184.294 199.369 183.165C198.156 181.329 197.941 181.118 197.132 181.047C196.539 181 196.27 181.071 196.27 181.282Z" fill="white" fill-opacity="0.6"/>
</g>
<g id="zKey">
<path id="Vector_90" d="M132.223 204.057H165.029C168.049 204.057 170.497 202.102 170.497 199.69V173.489C170.497 171.078 168.049 169.122 165.029 169.122H132.223C129.204 169.122 126.756 171.078 126.756 173.489V199.69C126.756 202.102 129.204 204.057 132.223 204.057Z" fill="#111111"/>
<path id="Vector_91" d="M144.353 181.157C144.118 181.251 144 181.559 144.059 181.795C144.147 182.197 144.529 182.268 147.765 182.362L151.353 182.48L149.118 185.317C147.882 186.877 146.235 188.958 145.441 189.951C144.618 190.943 144 192.007 144 192.362V193H149H154V192.409V191.818H150.382C148.382 191.818 146.676 191.747 146.559 191.676C146.382 191.534 146.853 190.896 151.471 185.01C152.912 183.166 153.706 181.913 153.647 181.582C153.559 181.086 153.441 181.062 149.147 181.015C146.735 180.968 144.559 181.038 144.353 181.157Z" fill="white" fill-opacity="0.6"/>
</g>
<path id="Vector_92" d="M14.6688 204.057H113.086C116.106 204.057 118.554 202.102 118.554 199.69V173.489C118.554 171.078 116.106 169.122 113.086 169.122H14.6688C11.6493 169.122 9.20117 171.078 9.20117 173.489V199.69C9.20117 202.102 11.6493 204.057 14.6688 204.057Z" fill="#111111"/>
<path id="Vector_93" d="M14.6688 123.271H74.8127C77.8322 123.271 80.2803 121.315 80.2803 118.904V92.703C80.2803 90.2914 77.8322 88.3362 74.8127 88.3362H14.6688C11.6493 88.3362 9.20117 90.2914 9.20117 92.703V118.904C9.20117 121.315 11.6493 123.271 14.6688 123.271Z" fill="#111111"/>
<path id="Vector_94" d="M754.165 38.118V20.6507C754.165 13.416 746.82 7.55029 737.762 7.55029H715.891C712.872 7.55029 710.424 9.50553 710.424 11.9171V38.118C710.424 40.5296 712.872 42.4848 715.891 42.4848H748.697C751.717 42.4848 754.165 40.5296 754.165 38.118Z" fill="#111111"/>
<path id="Vector_95" d="M165.029 213.882V240.083C165.029 242.495 167.477 244.45 170.497 244.45H216.972C219.991 244.45 222.439 242.495 222.439 240.083V213.882C222.439 211.47 219.991 209.515 216.972 209.515H170.497C167.477 209.515 165.029 211.47 165.029 213.882Z" fill="#111111"/>
<g id="spaceKey">
<path id="Vector_96" d="M230.641 213.882V240.083C230.641 242.495 233.089 244.45 236.108 244.45H476.684C479.703 244.45 482.151 242.495 482.151 240.083V213.882C482.151 211.47 479.703 209.515 476.684 209.515H236.108C233.089 209.515 230.641 211.47 230.641 213.882Z" fill="#111111"/>
</g>
<path id="Vector_97" d="M113.086 213.882V240.083C113.086 242.495 115.534 244.45 118.554 244.45H151.359C154.379 244.45 156.827 242.495 156.827 240.083V213.882C156.827 211.47 154.379 209.515 151.359 209.515H118.554C115.534 209.515 113.086 211.47 113.086 213.882Z" fill="#111111"/>
<path id="Vector_98" d="M61.1445 213.882V240.083C61.1445 242.495 63.5927 244.45 66.6122 244.45H99.4179C102.437 244.45 104.886 242.495 104.886 240.083V213.882C104.886 211.47 102.437 209.515 99.4179 209.515H66.6122C63.5927 209.515 61.1445 211.47 61.1445 213.882Z" fill="#111111"/>
<path id="Vector_99" d="M542.294 209.515H495.819C492.8 209.515 490.352 211.47 490.352 213.882V240.083C490.352 242.495 492.8 244.45 495.819 244.45H542.294C545.314 244.45 547.762 242.495 547.762 240.083V213.882C547.762 211.47 545.314 209.515 542.294 209.515Z" fill="#111111"/>
<path id="Vector_100" d="M594.238 209.515H561.432C558.413 209.515 555.965 211.47 555.965 213.882V240.083C555.965 242.495 558.413 244.45 561.432 244.45H594.238C597.258 244.45 599.706 242.495 599.706 240.083V213.882C599.706 211.47 597.258 209.515 594.238 209.515Z" fill="#111111"/>
<path id="Vector_101" d="M646.18 209.515H613.374C610.354 209.515 607.906 211.47 607.906 213.882V240.083C607.906 242.495 610.354 244.45 613.374 244.45H646.18C649.199 244.45 651.647 242.495 651.647 240.083V213.882C651.647 211.47 649.199 209.515 646.18 209.515Z" fill="#111111"/>
<path id="Vector_102" d="M698.123 209.515H665.317C662.298 209.515 659.85 211.47 659.85 213.882V240.083C659.85 242.495 662.298 244.45 665.317 244.45H698.123C701.142 244.45 703.591 242.495 703.591 240.083V213.882C703.591 211.47 701.142 209.515 698.123 209.515Z" fill="#111111"/>
<path id="Vector_103" d="M748.697 209.515H715.891C712.872 209.515 710.424 211.47 710.424 213.882V240.083C710.424 242.495 712.872 244.45 715.891 244.45H737.762C746.82 244.45 754.165 238.584 754.165 231.349V213.882C754.165 211.47 751.717 209.515 748.697 209.515Z" fill="#111111"/>
<path id="Vector_104" d="M9.20117 213.882V231.349C9.20117 238.584 16.5456 244.45 25.604 244.45H47.4746C50.4941 244.45 52.9422 242.495 52.9422 240.083V213.882C52.9422 211.47 50.4941 209.515 47.4746 209.515H14.6688C11.6493 209.515 9.20117 211.47 9.20117 213.882Z" fill="#111111"/>
<path id="Vector_105" d="M670.784 52.3099V78.5108C670.784 80.9224 668.336 82.8776 665.316 82.8776H670.784C673.804 82.8776 676.252 80.9224 676.252 78.5108V52.3099C676.252 49.8984 673.804 47.9431 670.784 47.9431H665.316C668.336 47.9431 670.784 49.8984 670.784 52.3099Z" fill="#111111"/>
<g id="lDetail">
<path id="Vector_106" d="M547.762 163.664H553.229C556.249 163.664 558.697 161.709 558.697 159.297V133.096C558.697 130.684 556.249 128.729 553.229 128.729H547.762C550.781 128.729 553.229 130.684 553.229 133.096V159.297C553.229 161.709 550.781 163.664 547.762 163.664Z" fill="#111111"/>
</g>
<path id="Vector_107" d="M691.287 123.271H696.755C699.774 123.271 702.222 121.315 702.222 118.904V92.703C702.222 90.2914 699.774 88.3362 696.755 88.3362H691.287C694.307 88.3362 696.755 90.2914 696.755 92.703V118.904C696.755 121.315 694.307 123.271 691.287 123.271Z" fill="#111111"/>
<path id="Vector_108" d="M651.646 163.664H657.114C660.134 163.664 662.582 161.709 662.582 159.297V133.096C662.582 130.684 660.134 128.729 657.114 128.729H651.646C654.666 128.729 657.114 130.684 657.114 133.096V159.297C657.114 161.709 654.666 163.664 651.646 163.664Z" fill="#111111"/>
<path id="Vector_109" d="M151.36 52.3099V78.5108C151.36 80.9224 148.912 82.8776 145.893 82.8776H151.36C154.38 82.8776 156.828 80.9224 156.828 78.5108V52.3099C156.828 49.8984 154.38 47.9431 151.36 47.9431H145.893C148.912 47.9431 151.36 49.8984 151.36 52.3099Z" fill="#111111"/>
<g id="pDetail">
<path id="Vector_110" d="M592.87 92.703V118.904C592.87 121.315 590.422 123.271 587.402 123.271H592.87C595.889 123.271 598.338 121.315 598.338 118.904V92.703C598.338 90.2914 595.889 88.3362 592.87 88.3362H587.402C590.422 88.3362 592.87 90.2914 592.87 92.703Z" fill="#111111"/>
</g>
<g id="oDetail">
<path id="Vector_111" d="M540.929 92.703V118.904C540.929 121.315 538.48 123.271 535.461 123.271H540.929C543.948 123.271 546.396 121.315 546.396 118.904V92.703C546.396 90.2914 543.948 88.3362 540.929 88.3362H535.461C538.48 88.3362 540.929 90.2914 540.929 92.703Z" fill="#111111"/>
</g>
<path id="Vector_112" d="M523.158 204.057H528.626C531.645 204.057 534.093 202.102 534.093 199.69V173.489C534.093 171.078 531.645 169.122 528.626 169.122H523.158C526.178 169.122 528.626 171.078 528.626 173.489V199.69C528.626 202.102 526.178 204.057 523.158 204.057Z" fill="#111111"/>
<path id="Vector_113" d="M203.302 52.3099V78.5108C203.302 80.9224 200.853 82.8776 197.834 82.8776H203.302C206.321 82.8776 208.769 80.9224 208.769 78.5108V52.3099C208.769 49.8984 206.321 47.9431 203.302 47.9431H197.834C200.853 47.9431 203.302 49.8984 203.302 52.3099Z" fill="#111111"/>
<path id="Vector_114" d="M255.245 52.3099V78.5108C255.245 80.9224 252.797 82.8776 249.777 82.8776H255.245C258.264 82.8776 260.713 80.9224 260.713 78.5108V52.3099C260.713 49.8984 258.264 47.9431 255.245 47.9431H249.777C252.797 47.9431 255.245 49.8984 255.245 52.3099Z" fill="#111111"/>
<path id="Vector_115" d="M307.186 52.3099V78.5108C307.186 80.9224 304.738 82.8776 301.719 82.8776H307.186C310.206 82.8776 312.654 80.9224 312.654 78.5108V52.3099C312.654 49.8984 310.206 47.9431 307.186 47.9431H301.719C304.74 47.9431 307.186 49.8984 307.186 52.3099Z" fill="#111111"/>
<path id="Vector_116" d="M359.13 52.3099V78.5108C359.13 80.9224 356.682 82.8776 353.662 82.8776H359.13C362.149 82.8776 364.597 80.9224 364.597 78.5108V52.3099C364.597 49.8984 362.149 47.9431 359.13 47.9431H353.662C356.682 47.9431 359.13 49.8984 359.13 52.3099Z" fill="#111111"/>
<path id="Vector_117" d="M644.813 92.703V118.904C644.813 121.315 642.365 123.271 639.346 123.271H644.813C647.833 123.271 650.281 121.315 650.281 118.904V92.703C650.281 90.2914 647.833 88.3362 644.813 88.3362H639.346C642.365 88.3362 644.813 90.2914 644.813 92.703Z" fill="#111111"/>
<path id="Vector_118" d="M463.015 52.3099V78.5108C463.015 80.9224 460.566 82.8776 457.547 82.8776H463.015C466.034 82.8776 468.482 80.9224 468.482 78.5108V52.3099C468.482 49.8984 466.034 47.9431 463.015 47.9431H457.547C460.566 47.9431 463.015 49.8984 463.015 52.3099Z" fill="#111111"/>
<path id="Vector_119" d="M411.071 52.3099V78.5108C411.071 80.9224 408.623 82.8776 405.604 82.8776H411.071C414.091 82.8776 416.539 80.9224 416.539 78.5108V52.3099C416.539 49.8984 414.091 47.9431 411.071 47.9431H405.604C408.623 47.9431 411.071 49.8984 411.071 52.3099Z" fill="#111111"/>
<path id="Vector_120" d="M514.956 52.3099V78.5108C514.956 80.9224 512.508 82.8776 509.488 82.8776H514.956C517.975 82.8776 520.424 80.9224 520.424 78.5108V52.3099C520.424 49.8984 517.975 47.9431 514.956 47.9431H509.488C512.508 47.9431 514.956 49.8984 514.956 52.3099Z" fill="#111111"/>
<path id="Vector_121" d="M566.899 52.3099V78.5108C566.899 80.9224 564.451 82.8776 561.432 82.8776H566.899C569.919 82.8776 572.367 80.9224 572.367 78.5108V52.3099C572.367 49.8984 569.919 47.9431 566.899 47.9431H561.432C564.451 47.9431 566.899 49.8984 566.899 52.3099Z" fill="#111111"/>
<path id="Vector_122" d="M618.843 52.3099V78.5108C618.843 80.9224 616.394 82.8776 613.375 82.8776H618.843C621.862 82.8776 624.31 80.9224 624.31 78.5108V52.3099C624.31 49.8984 621.862 47.9431 618.843 47.9431H613.375C616.394 47.9431 618.843 49.8984 618.843 52.3099Z" fill="#111111"/>
<path id="Vector_123" d="M599.705 163.664H605.173C608.192 163.664 610.64 161.709 610.64 159.297V133.096C610.64 130.684 608.192 128.729 605.173 128.729H599.705C602.725 128.729 605.173 130.684 605.173 133.096V159.297C605.173 161.709 602.725 163.664 599.705 163.664Z" fill="#111111"/>
<g id="uDetail">
<path id="Vector_124" d="M437.044 92.703V118.904C437.044 121.315 434.596 123.271 431.576 123.271H437.044C440.063 123.271 442.511 121.315 442.511 118.904V92.703C442.511 90.2914 440.063 88.3362 437.044 88.3362H431.576C434.596 88.3362 437.044 90.2914 437.044 92.703Z" fill="#111111"/>
</g>
<g id="eDetail">
<path id="Vector_125" d="M229.274 88.3362H223.807C226.826 88.3362 229.274 90.2914 229.274 92.703V118.904C229.274 121.315 226.826 123.271 223.807 123.271H229.274C232.294 123.271 234.742 121.315 234.742 118.904V92.703C234.742 90.2914 232.294 88.3362 229.274 88.3362Z" fill="#111111"/>
</g>
<g id="yDetail">
<path id="Vector_126" d="M385.1 92.703V118.904C385.1 121.315 382.652 123.271 379.633 123.271H385.1C388.12 123.271 390.568 121.315 390.568 118.904V92.703C390.568 90.2914 388.12 88.3362 385.1 88.3362H379.633C382.652 88.3362 385.1 90.2914 385.1 92.703Z" fill="#111111"/>
</g>
<g id="wDetail">
<path id="Vector_127" d="M177.331 88.3362H171.863C174.883 88.3362 177.331 90.2914 177.331 92.703V118.904C177.331 121.315 174.883 123.271 171.863 123.271H177.331C180.35 123.271 182.799 121.315 182.799 118.904V92.703C182.799 90.2914 180.35 88.3362 177.331 88.3362Z" fill="#111111"/>
</g>
<path id="Vector_128" d="M47.4754 47.9431H42.0078C45.0273 47.9431 47.4754 49.8984 47.4754 52.3099V78.5108C47.4754 80.9224 45.0273 82.8776 42.0078 82.8776H47.4754C50.4949 82.8776 52.9431 80.9224 52.9431 78.5108V52.3099C52.9431 49.8984 50.4949 47.9431 47.4754 47.9431Z" fill="#111111"/>
<path id="Vector_129" d="M74.8133 92.703V118.904C74.8133 121.315 72.3652 123.271 69.3457 123.271H74.8133C77.8328 123.271 80.281 121.315 80.281 118.904V92.703C80.281 90.2914 77.8328 88.3362 74.8133 88.3362H69.3457C72.3652 88.3362 74.8133 90.2914 74.8133 92.703Z" fill="#111111"/>
<g id="tDetail">
<path id="Vector_130" d="M333.159 92.703V118.904C333.159 121.315 330.711 123.271 327.691 123.271H333.159C336.179 123.271 338.627 121.315 338.627 118.904V92.703C338.627 90.2914 336.179 88.3362 333.159 88.3362H327.691C330.711 88.3362 333.159 90.2914 333.159 92.703Z" fill="#111111"/>
</g>
<g id="qDetail">
<path id="Vector_131" d="M125.388 88.3362H119.92C122.939 88.3362 125.388 90.2914 125.388 92.703V118.904C125.388 121.315 122.939 123.271 119.92 123.271H125.388C128.407 123.271 130.855 121.315 130.855 118.904V92.703C130.855 90.2914 128.407 88.3362 125.388 88.3362Z" fill="#111111"/>
</g>
<path id="Vector_132" d="M81.6465 163.664H87.1141C90.1336 163.664 92.5817 161.709 92.5817 159.297V133.096C92.5817 130.684 90.1336 128.729 87.1141 128.729H81.6465C84.666 128.729 87.1141 130.684 87.1141 133.096V159.297C87.1141 161.709 84.666 163.664 81.6465 163.664Z" fill="#111111"/>
<g id="bDetail">
<path id="Vector_133" d="M367.33 204.057H372.798C375.817 204.057 378.265 202.102 378.265 199.69V173.489C378.265 171.078 375.817 169.122 372.798 169.122H367.33C370.35 169.122 372.798 171.078 372.798 173.489V199.69C372.798 202.102 370.35 204.057 367.33 204.057Z" fill="#111111"/>
</g>
<g id="iDetail">
<path id="Vector_134" d="M488.985 88.3362H483.518C486.537 88.3362 488.985 90.2914 488.985 92.703V118.904C488.985 121.315 486.537 123.271 483.518 123.271H488.985C492.005 123.271 494.453 121.315 494.453 118.904V92.703C494.453 90.2914 492.005 88.3362 488.985 88.3362Z" fill="#111111"/>
</g>
<g id="rDetail">
<path id="Vector_135" d="M281.216 92.703V118.904C281.216 121.315 278.768 123.271 275.748 123.271H281.216C284.235 123.271 286.683 121.315 286.683 118.904V92.703C286.683 90.2914 284.235 88.3362 281.216 88.3362H275.748C278.768 88.3362 281.216 90.2914 281.216 92.703Z" fill="#111111"/>
</g>
<g id="hDetail">
<path id="Vector_136" d="M391.936 163.664H397.403C400.423 163.664 402.871 161.709 402.871 159.297V133.096C402.871 130.684 400.423 128.729 397.403 128.729H391.936C394.955 128.729 397.403 130.684 397.403 133.096V159.297C397.403 161.709 394.955 163.664 391.936 163.664Z" fill="#111111"/>
</g>
<g id="jDetail">
<path id="Vector_137" d="M443.877 163.664H449.345C452.364 163.664 454.812 161.709 454.812 159.297V133.096C454.812 130.684 452.364 128.729 449.345 128.729H443.877C446.896 128.729 449.345 130.684 449.345 133.096V159.297C449.345 161.709 446.896 163.664 443.877 163.664Z" fill="#111111"/>
</g>
<g id="nDetail">
<path id="Vector_138" d="M419.273 204.057H424.741C427.761 204.057 430.209 202.102 430.209 199.69V173.489C430.209 171.078 427.761 169.122 424.741 169.122H419.273C422.293 169.122 424.741 171.078 424.741 173.489V199.69C424.741 202.102 422.293 204.057 419.273 204.057Z" fill="#111111"/>
</g>
<g id="cDetail">
<path id="Vector_139" d="M263.445 204.057H268.913C271.932 204.057 274.381 202.102 274.381 199.69V173.489C274.381 171.078 271.932 169.122 268.913 169.122H263.445C266.465 169.122 268.913 171.078 268.913 173.489V199.69C268.913 202.102 266.465 204.057 263.445 204.057Z" fill="#111111"/>
</g>
<g id="fDetail">
<path id="Vector_140" d="M288.051 163.664H293.518C296.538 163.664 298.986 161.709 298.986 159.297V133.096C298.986 130.684 296.538 128.729 293.518 128.729H288.051C291.07 128.729 293.518 130.684 293.518 133.096V159.297C293.518 161.709 291.07 163.664 288.051 163.664Z" fill="#111111"/>
</g>
<g id="gDetail">
<path id="Vector_141" d="M339.992 163.664H345.46C348.479 163.664 350.927 161.709 350.927 159.297V133.096C350.927 130.684 348.479 128.729 345.46 128.729H339.992C343.012 128.729 345.46 130.684 345.46 133.096V159.297C345.46 161.709 343.012 163.664 339.992 163.664Z" fill="#111111"/>
</g>
<g id="vDetail">
<path id="Vector_142" d="M315.389 204.057H320.856C323.876 204.057 326.324 202.102 326.324 199.69V173.489C326.324 171.078 323.876 169.122 320.856 169.122H315.389C318.408 169.122 320.856 171.078 320.856 173.489V199.69C320.856 202.102 318.408 204.057 315.389 204.057Z" fill="#111111"/>
</g>
<path id="Vector_143" d="M333.159 11.9171V38.118C333.159 40.5296 330.711 42.4848 327.691 42.4848H333.159C336.179 42.4848 338.627 40.5296 338.627 38.118V11.9171C338.627 9.50553 336.179 7.55029 333.159 7.55029H327.691C330.712 7.55029 333.159 9.50553 333.159 11.9171Z" fill="#111111"/>
<g id="xDetail">
<path id="Vector_144" d="M216.972 169.122H211.504C214.523 169.122 216.972 171.078 216.972 173.489V199.69C216.972 202.102 214.523 204.057 211.504 204.057H216.972C219.991 204.057 222.439 202.102 222.439 199.69V173.489C222.439 171.078 219.991 169.122 216.972 169.122Z" fill="#111111"/>
</g>
<path id="Vector_145" d="M216.972 209.515H211.504C214.523 209.515 216.972 211.47 216.972 213.882V240.083C216.972 242.495 214.523 244.45 211.504 244.45H216.972C219.991 244.45 222.439 242.495 222.439 240.083V213.882C222.439 211.47 219.991 209.515 216.972 209.515Z" fill="#111111"/>
<g id="zDetail">
<path id="Vector_146" d="M159.561 204.057H165.028C168.048 204.057 170.496 202.102 170.496 199.69V173.489C170.496 171.078 168.048 169.122 165.028 169.122H159.561C162.58 169.122 165.028 171.078 165.028 173.489V199.69C165.028 202.102 162.58 204.057 159.561 204.057Z" fill="#111111"/>
</g>
<g id="spaceDetail">
<path id="Vector_147" d="M476.682 209.515H471.215C474.234 209.515 476.682 211.47 476.682 213.882V240.083C476.682 242.495 474.234 244.45 471.215 244.45H476.682C479.702 244.45 482.15 242.495 482.15 240.083V213.882C482.15 211.47 479.702 209.515 476.682 209.515Z" fill="#111111"/>
</g>
<path id="Vector_148" d="M47.4754 209.515H42.0078C45.0273 209.515 47.4754 211.47 47.4754 213.882V240.083C47.4754 242.495 45.0273 244.45 42.0078 244.45H47.4754C50.4949 244.45 52.9431 242.495 52.9431 240.083V213.882C52.9431 211.47 50.4949 209.515 47.4754 209.515Z" fill="#111111"/>
<path id="Vector_149" d="M99.4168 52.3099V78.5108C99.4168 80.9224 96.9687 82.8776 93.9492 82.8776H99.4168C102.436 82.8776 104.884 80.9224 104.884 78.5108V52.3099C104.884 49.8984 102.436 47.9431 99.4168 47.9431H93.9492C96.9687 47.9431 99.4168 49.8984 99.4168 52.3099Z" fill="#111111"/>
<path id="Vector_150" d="M99.4168 209.515H93.9492C96.9687 209.515 99.4168 211.47 99.4168 213.882V240.083C99.4168 242.495 96.9687 244.45 93.9492 244.45H99.4168C102.436 244.45 104.884 242.495 104.884 240.083V213.882C104.884 211.47 102.436 209.515 99.4168 209.515Z" fill="#111111"/>
<path id="Vector_151" d="M107.619 204.057H113.087C116.106 204.057 118.554 202.102 118.554 199.69V173.489C118.554 171.078 116.106 169.122 113.087 169.122H107.619C110.639 169.122 113.087 171.078 113.087 173.489V199.69C113.087 202.102 110.639 204.057 107.619 204.057Z" fill="#111111"/>
<path id="Vector_152" d="M151.36 209.515H145.893C148.912 209.515 151.36 211.47 151.36 213.882V240.083C151.36 242.495 148.912 244.45 145.893 244.45H151.36C154.38 244.45 156.828 242.495 156.828 240.083V213.882C156.828 211.47 154.38 209.515 151.36 209.515Z" fill="#111111"/>
<g id="deleteDetail">
<path id="Vector_153" d="M748.698 47.9431H743.23C746.25 47.9431 748.698 49.8984 748.698 52.3099V78.5108C748.698 80.9224 746.25 82.8776 743.23 82.8776H748.698C751.718 82.8776 754.166 80.9224 754.166 78.5108V52.3099C754.166 49.8984 751.718 47.9431 748.698 47.9431Z" fill="#111111"/>
</g>
<path id="Vector_154" d="M748.698 128.729H743.23C746.25 128.729 748.698 130.684 748.698 133.096V159.297C748.698 161.709 746.25 163.664 743.23 163.664H748.698C751.718 163.664 754.166 161.709 754.166 159.297V133.096C754.166 130.684 751.718 128.729 748.698 128.729Z" fill="#111111"/>
<path id="Vector_155" d="M748.698 88.3362H743.23C746.25 88.3362 748.698 90.2914 748.698 92.703V118.904C748.698 121.315 746.25 123.271 743.23 123.271H748.698C751.718 123.271 754.166 121.315 754.166 118.904V92.703C754.166 90.2914 751.718 88.3362 748.698 88.3362Z" fill="#111111"/>
<path id="Vector_156" d="M74.8133 11.9171V38.118C74.8133 40.5296 72.3652 42.4848 69.3457 42.4848H74.8133C77.8328 42.4848 80.281 40.5296 80.281 38.118V11.9171C80.281 9.50553 77.8328 7.55029 74.8133 7.55029H69.3457C72.3652 7.55029 74.8133 9.50553 74.8133 11.9171Z" fill="#111111"/>
<path id="Vector_157" d="M737.763 7.55029H732.295C741.353 7.55029 748.698 13.416 748.698 20.6507V38.118C748.698 40.5296 746.25 42.4848 743.23 42.4848H748.698C751.717 42.4848 754.165 40.5296 754.165 38.118V20.6507C754.165 13.416 746.821 7.55029 737.763 7.55029Z" fill="#111111"/>
<path id="Vector_158" d="M594.237 209.515H588.77C591.789 209.515 594.237 211.47 594.237 213.882V240.083C594.237 242.495 591.789 244.45 588.77 244.45H594.237C597.257 244.45 599.705 242.495 599.705 240.083V213.882C599.705 211.47 597.257 209.515 594.237 209.515Z" fill="#111111"/>
<path id="Vector_159" d="M698.122 209.515H692.654C695.674 209.515 698.122 211.47 698.122 213.882V240.083C698.122 242.495 695.674 244.45 692.654 244.45H698.122C701.141 244.45 703.59 242.495 703.59 240.083V213.882C703.59 211.47 701.141 209.515 698.122 209.515Z" fill="#111111"/>
<path id="Vector_160" d="M646.181 209.515H640.713C643.732 209.515 646.181 211.47 646.181 213.882V240.083C646.181 242.495 643.732 244.45 640.713 244.45H646.181C649.2 244.45 651.648 242.495 651.648 240.083V213.882C651.648 211.47 649.2 209.515 646.181 209.515Z" fill="#111111"/>
<path id="Vector_161" d="M748.698 209.515H743.23C746.25 209.515 748.698 211.47 748.698 213.882V231.349C748.698 238.584 741.353 244.45 732.295 244.45H737.763C746.821 244.45 754.165 238.584 754.165 231.349V213.882C754.165 211.47 751.717 209.515 748.698 209.515Z" fill="#111111"/>
<path id="Vector_162" d="M748.698 169.122H743.23C746.25 169.122 748.698 171.078 748.698 173.489V199.69C748.698 202.102 746.25 204.057 743.23 204.057H748.698C751.718 204.057 754.166 202.102 754.166 199.69V173.489C754.166 171.078 751.718 169.122 748.698 169.122Z" fill="#111111"/>
<path id="Vector_163" d="M542.296 209.515H536.828C539.848 209.515 542.296 211.47 542.296 213.882V240.083C542.296 242.495 539.848 244.45 536.828 244.45H542.296C545.315 244.45 547.763 242.495 547.763 240.083V213.882C547.763 211.47 545.315 209.515 542.296 209.515Z" fill="#111111"/>
<path id="Vector_164" d="M627.043 204.057H632.511C635.53 204.057 637.978 202.102 637.978 199.69V173.489C637.978 171.078 635.53 169.122 632.511 169.122H627.043C630.062 169.122 632.511 171.078 632.511 173.489V199.69C632.511 202.102 630.062 204.057 627.043 204.057Z" fill="#111111"/>
<path id="Vector_165" d="M575.102 204.057H580.569C583.589 204.057 586.037 202.102 586.037 199.69V173.489C586.037 171.078 583.589 169.122 580.569 169.122H575.102C578.121 169.122 580.569 171.078 580.569 173.489V199.69C580.569 202.102 578.121 204.057 575.102 204.057Z" fill="#111111"/>
<path id="Vector_166" d="M696.755 11.9171V38.118C696.755 40.5296 694.307 42.4848 691.287 42.4848H696.755C699.774 42.4848 702.222 40.5296 702.222 38.118V11.9171C702.222 9.50553 699.774 7.55029 696.755 7.55029H691.287C694.307 7.55029 696.755 9.50553 696.755 11.9171Z" fill="#111111"/>
<path id="Vector_167" d="M644.813 11.9171V38.118C644.813 40.5296 642.365 42.4848 639.346 42.4848H644.813C647.833 42.4848 650.281 40.5296 650.281 38.118V11.9171C650.281 9.50553 647.833 7.55029 644.813 7.55029H639.346C642.365 7.55029 644.813 9.50553 644.813 11.9171Z" fill="#111111"/>
<g id="kDetail">
<path id="Vector_168" d="M495.82 163.664H501.288C504.307 163.664 506.756 161.709 506.756 159.297V133.096C506.756 130.684 504.307 128.729 501.288 128.729H495.82C498.84 128.729 501.288 130.684 501.288 133.096V159.297C501.288 161.709 498.84 163.664 495.82 163.664Z" fill="#111111"/>
</g>
<path id="Vector_169" d="M125.388 11.9171V38.118C125.388 40.5296 122.939 42.4848 119.92 42.4848H125.388C128.407 42.4848 130.855 40.5296 130.855 38.118V11.9171C130.855 9.50553 128.407 7.55029 125.388 7.55029H119.92C122.939 7.55029 125.388 9.50553 125.388 11.9171Z" fill="#111111"/>
<g id="mDetail">
<path id="Vector_170" d="M471.215 204.057H476.682C479.702 204.057 482.15 202.102 482.15 199.69V173.489C482.15 171.078 479.702 169.122 476.682 169.122H471.215C474.234 169.122 476.682 171.078 476.682 173.489V199.69C476.682 202.102 474.234 204.057 471.215 204.057Z" fill="#111111"/>
</g>
<g id="sDetail">
<path id="Vector_171" d="M184.166 163.664H189.634C192.653 163.664 195.101 161.709 195.101 159.297V133.096C195.101 130.684 192.653 128.729 189.634 128.729H184.166C187.186 128.729 189.634 130.684 189.634 133.096V159.297C189.634 161.709 187.186 163.664 184.166 163.664Z" fill="#111111"/>
</g>
<g id="dDetail">
<path id="Vector_172" d="M236.107 163.664H241.575C244.595 163.664 247.043 161.709 247.043 159.297V133.096C247.043 130.684 244.595 128.729 241.575 128.729H236.107C239.127 128.729 241.575 130.684 241.575 133.096V159.297C241.575 161.709 239.127 163.664 236.107 163.664Z" fill="#111111"/>
</g>
<g id="aDetail">
<path id="Vector_173" d="M132.223 163.664H137.69C140.71 163.664 143.158 161.709 143.158 159.297V133.096C143.158 130.684 140.71 128.729 137.69 128.729H132.223C135.242 128.729 137.69 130.684 137.69 133.096V159.297C137.69 161.709 135.242 163.664 132.223 163.664Z" fill="#111111"/>
</g>
<path id="Vector_174" d="M229.274 11.9171V38.118C229.274 40.5296 226.826 42.4848 223.807 42.4848H229.274C232.294 42.4848 234.742 40.5296 234.742 38.118V11.9171C234.742 9.50553 232.294 7.55029 229.274 7.55029H223.807C226.826 7.55029 229.274 9.50553 229.274 11.9171Z" fill="#111111"/>
<path id="Vector_175" d="M281.216 11.9171V38.118C281.216 40.5296 278.768 42.4848 275.748 42.4848H281.216C284.235 42.4848 286.683 40.5296 286.683 38.118V11.9171C286.683 9.50553 284.235 7.55029 281.216 7.55029H275.748C278.768 7.55029 281.216 9.50553 281.216 11.9171Z" fill="#111111"/>
<path id="Vector_176" d="M385.1 11.9171V38.118C385.1 40.5296 382.652 42.4848 379.633 42.4848H385.1C388.12 42.4848 390.568 40.5296 390.568 38.118V11.9171C390.568 9.50553 388.12 7.55029 385.1 7.55029H379.633C382.652 7.55029 385.1 9.50553 385.1 11.9171Z" fill="#111111"/>
<path id="Vector_177" d="M177.331 11.9171V38.118C177.331 40.5296 174.883 42.4848 171.863 42.4848H177.331C180.35 42.4848 182.799 40.5296 182.799 38.118V11.9171C182.799 9.50553 180.35 7.55029 177.331 7.55029H171.863C174.883 7.55029 177.331 9.50553 177.331 11.9171Z" fill="#111111"/>
<path id="Vector_178" d="M540.929 11.9171V38.118C540.929 40.5296 538.48 42.4848 535.461 42.4848H540.929C543.948 42.4848 546.396 40.5296 546.396 38.118V11.9171C546.396 9.50553 543.948 7.55029 540.929 7.55029H535.461C538.48 7.55029 540.929 9.50553 540.929 11.9171Z" fill="#111111"/>
<path id="Vector_179" d="M592.87 11.9171V38.118C592.87 40.5296 590.422 42.4848 587.402 42.4848H592.87C595.889 42.4848 598.338 40.5296 598.338 38.118V11.9171C598.338 9.50553 595.889 7.55029 592.87 7.55029H587.402C590.422 7.55029 592.87 9.50553 592.87 11.9171Z" fill="#111111"/>
<path id="Vector_180" d="M437.044 11.9171V38.118C437.044 40.5296 434.596 42.4848 431.576 42.4848H437.044C440.063 42.4848 442.511 40.5296 442.511 38.118V11.9171C442.511 9.50553 440.063 7.55029 437.044 7.55029H431.576C434.596 7.55029 437.044 9.50553 437.044 11.9171Z" fill="#111111"/>
<path id="Vector_181" d="M488.985 11.9171V38.118C488.985 40.5296 486.537 42.4848 483.518 42.4848H488.985C492.005 42.4848 494.453 40.5296 494.453 38.118V11.9171C494.453 9.50553 492.005 7.55029 488.985 7.55029H483.518C486.537 7.55029 488.985 9.50553 488.985 11.9171Z" fill="#111111"/>
</g>
<g id="Group_2">
<path id="Vector_182" d="M737.763 251H24.2374C11.4035 251 1 242.691 1 232.441V19.559C1 9.30895 11.4035 1 24.2374 1H737.763C750.597 1 761 9.30895 761 19.559V232.441C761 242.691 750.597 251 737.763 251Z" stroke="white" stroke-opacity="0.501961" stroke-width="2" stroke-miterlimit="10"/>
<path id="Vector_183" d="M125.389 42.4848H92.5829C89.5634 42.4848 87.1152 40.5296 87.1152 38.118V11.9171C87.1152 9.50553 89.5634 7.55029 92.5829 7.55029H125.389C128.408 7.55029 130.856 9.50553 130.856 11.9171V38.118C130.856 40.5296 128.408 42.4848 125.389 42.4848Z" stroke="white" stroke-opacity="0.501961" stroke-width="2" stroke-miterlimit="10"/>
<path id="Vector_184" d="M74.8127 42.4848H14.6688C11.6493 42.4848 9.20117 40.5296 9.20117 38.118V20.6507C9.20117 13.416 16.5456 7.55029 25.6041 7.55029H74.8127C77.8322 7.55029 80.2803 9.50553 80.2803 11.9171V38.118C80.2803 40.5296 77.8322 42.4848 74.8127 42.4848Z" stroke="white" stroke-opacity="0.501961" stroke-width="2" stroke-miterlimit="10"/>
<path id="Vector_185" d="M177.33 42.4848H144.524C141.505 42.4848 139.057 40.5296 139.057 38.118V11.9171C139.057 9.50553 141.505 7.55029 144.524 7.55029H177.33C180.35 7.55029 182.798 9.50553 182.798 11.9171V38.118C182.798 40.5296 180.35 42.4848 177.33 42.4848Z" stroke="white" stroke-opacity="0.501961" stroke-width="2" stroke-miterlimit="10"/>
<path id="Vector_186" d="M229.273 42.4848H196.468C193.448 42.4848 191 40.5296 191 38.118V11.9171C191 9.50553 193.448 7.55029 196.468 7.55029H229.273C232.293 7.55029 234.741 9.50553 234.741 11.9171V38.118C234.741 40.5296 232.293 42.4848 229.273 42.4848Z" stroke="white" stroke-opacity="0.501961" stroke-width="2" stroke-miterlimit="10"/>
<path id="Vector_187" d="M281.217 42.4848H248.411C245.391 42.4848 242.943 40.5296 242.943 38.118V11.9171C242.943 9.50553 245.391 7.55029 248.411 7.55029H281.217C284.236 7.55029 286.684 9.50553 286.684 11.9171V38.118C286.684 40.5296 284.236 42.4848 281.217 42.4848Z" stroke="white" stroke-opacity="0.501961" stroke-width="2" stroke-miterlimit="10"/>
<path id="Vector_188" d="M333.158 42.4848H300.352C297.333 42.4848 294.885 40.5296 294.885 38.118V11.9171C294.885 9.50553 297.333 7.55029 300.352 7.55029H333.158C336.178 7.55029 338.626 9.50553 338.626 11.9171V38.118C338.626 40.5296 336.179 42.4848 333.158 42.4848Z" stroke="white" stroke-opacity="0.501961" stroke-width="2" stroke-miterlimit="10"/>
<path id="Vector_189" d="M385.102 42.4848H352.296C349.276 42.4848 346.828 40.5296 346.828 38.118V11.9171C346.828 9.50553 349.276 7.55029 352.296 7.55029H385.102C388.121 7.55029 390.569 9.50553 390.569 11.9171V38.118C390.569 40.5296 388.121 42.4848 385.102 42.4848Z" stroke="white" stroke-opacity="0.501961" stroke-width="2" stroke-miterlimit="10"/>
<path id="Vector_190" d="M437.043 42.4848H404.237C401.218 42.4848 398.77 40.5296 398.77 38.118V11.9171C398.77 9.50553 401.218 7.55029 404.237 7.55029H437.043C440.062 7.55029 442.511 9.50553 442.511 11.9171V38.118C442.511 40.5296 440.062 42.4848 437.043 42.4848Z" stroke="white" stroke-opacity="0.501961" stroke-width="2" stroke-miterlimit="10"/>
<path id="Vector_191" d="M488.986 42.4848H456.181C453.161 42.4848 450.713 40.5296 450.713 38.118V11.9171C450.713 9.50553 453.161 7.55029 456.181 7.55029H488.986C492.006 7.55029 494.454 9.50553 494.454 11.9171V38.118C494.454 40.5296 492.006 42.4848 488.986 42.4848Z" stroke="white" stroke-opacity="0.501961" stroke-width="2" stroke-miterlimit="10"/>
<path id="Vector_192" d="M540.928 42.4848H508.122C505.102 42.4848 502.654 40.5296 502.654 38.118V11.9171C502.654 9.50553 505.102 7.55029 508.122 7.55029H540.928C543.947 7.55029 546.395 9.50553 546.395 11.9171V38.118C546.395 40.5296 543.947 42.4848 540.928 42.4848Z" stroke="white" stroke-opacity="0.501961" stroke-width="2" stroke-miterlimit="10"/>
<path id="Vector_193" d="M592.871 42.4848H560.065C557.046 42.4848 554.598 40.5296 554.598 38.118V11.9171C554.598 9.50553 557.046 7.55029 560.065 7.55029H592.871C595.891 7.55029 598.339 9.50553 598.339 11.9171V38.118C598.339 40.5296 595.891 42.4848 592.871 42.4848Z" stroke="white" stroke-opacity="0.501961" stroke-width="2" stroke-miterlimit="10"/>
<path id="Vector_194" d="M644.812 42.4848H612.007C608.987 42.4848 606.539 40.5296 606.539 38.118V11.9171C606.539 9.50553 608.987 7.55029 612.007 7.55029H644.812C647.832 7.55029 650.28 9.50553 650.28 11.9171V38.118C650.28 40.5296 647.832 42.4848 644.812 42.4848Z" stroke="white" stroke-opacity="0.501961" stroke-width="2" stroke-miterlimit="10"/>
<path id="Vector_195" d="M696.756 42.4848H663.95C660.931 42.4848 658.482 40.5296 658.482 38.118V11.9171C658.482 9.50553 660.931 7.55029 663.95 7.55029H696.756C699.775 7.55029 702.223 9.50553 702.223 11.9171V38.118C702.223 40.5296 699.775 42.4848 696.756 42.4848Z" stroke="white" stroke-opacity="0.501961" stroke-width="2" stroke-miterlimit="10"/>
<path id="Vector_196" d="M99.4179 82.8776H66.6122C63.5927 82.8776 61.1445 80.9224 61.1445 78.5108V52.3099C61.1445 49.8984 63.5927 47.9431 66.6122 47.9431H99.4179C102.437 47.9431 104.886 49.8984 104.886 52.3099V78.5108C104.886 80.9224 102.437 82.8776 99.4179 82.8776Z" stroke="white" stroke-opacity="0.501961" stroke-width="2" stroke-miterlimit="10"/>
<path id="Vector_197" d="M47.4746 82.8776H14.6688C11.6493 82.8776 9.20117 80.9224 9.20117 78.5108V52.3099C9.20117 49.8984 11.6493 47.9431 14.6688 47.9431H47.4746C50.4941 47.9431 52.9422 49.8984 52.9422 52.3099V78.5108C52.9422 80.9224 50.4941 82.8776 47.4746 82.8776Z" stroke="white" stroke-opacity="0.501961" stroke-width="2" stroke-miterlimit="10"/>
<path id="Vector_198" d="M151.359 82.8776H118.554C115.534 82.8776 113.086 80.9224 113.086 78.5108V52.3099C113.086 49.8984 115.534 47.9431 118.554 47.9431H151.359C154.379 47.9431 156.827 49.8984 156.827 52.3099V78.5108C156.827 80.9224 154.379 82.8776 151.359 82.8776Z" stroke="white" stroke-opacity="0.501961" stroke-width="2" stroke-miterlimit="10"/>
<path id="Vector_199" d="M203.303 82.8776H170.497C167.477 82.8776 165.029 80.9224 165.029 78.5108V52.3099C165.029 49.8984 167.477 47.9431 170.497 47.9431H203.303C206.322 47.9431 208.77 49.8984 208.77 52.3099V78.5108C208.77 80.9224 206.322 82.8776 203.303 82.8776Z" stroke="white" stroke-opacity="0.501961" stroke-width="2" stroke-miterlimit="10"/>
<path id="Vector_200" d="M255.244 82.8776H222.438C219.419 82.8776 216.971 80.9224 216.971 78.5108V52.3099C216.971 49.8984 219.419 47.9431 222.438 47.9431H255.244C258.264 47.9431 260.712 49.8984 260.712 52.3099V78.5108C260.712 80.9224 258.264 82.8776 255.244 82.8776Z" stroke="white" stroke-opacity="0.501961" stroke-width="2" stroke-miterlimit="10"/>
<path id="Vector_201" d="M307.187 82.8776H274.382C271.362 82.8776 268.914 80.9224 268.914 78.5108V52.3099C268.914 49.8984 271.362 47.9431 274.382 47.9431H307.187C310.207 47.9431 312.655 49.8984 312.655 52.3099V78.5108C312.655 80.9224 310.208 82.8776 307.187 82.8776Z" stroke="white" stroke-opacity="0.501961" stroke-width="2" stroke-miterlimit="10"/>
<path id="Vector_202" d="M359.129 82.8776H326.323C323.304 82.8776 320.855 80.9224 320.855 78.5108V52.3099C320.855 49.8984 323.304 47.9431 326.323 47.9431H359.129C362.148 47.9431 364.596 49.8984 364.596 52.3099V78.5108C364.596 80.9224 362.148 82.8776 359.129 82.8776Z" stroke="white" stroke-opacity="0.501961" stroke-width="2" stroke-miterlimit="10"/>
<path id="Vector_203" d="M411.072 82.8776H378.266C375.247 82.8776 372.799 80.9224 372.799 78.5108V52.3099C372.799 49.8984 375.247 47.9431 378.266 47.9431H411.072C414.092 47.9431 416.54 49.8984 416.54 52.3099V78.5108C416.54 80.9224 414.092 82.8776 411.072 82.8776Z" stroke="white" stroke-opacity="0.501961" stroke-width="2" stroke-miterlimit="10"/>
<path id="Vector_204" d="M463.014 82.8776H430.208C427.188 82.8776 424.74 80.9224 424.74 78.5108V52.3099C424.74 49.8984 427.188 47.9431 430.208 47.9431H463.014C466.033 47.9431 468.481 49.8984 468.481 52.3099V78.5108C468.481 80.9224 466.033 82.8776 463.014 82.8776Z" stroke="white" stroke-opacity="0.501961" stroke-width="2" stroke-miterlimit="10"/>
<path id="Vector_205" d="M514.957 82.8776H482.151C479.132 82.8776 476.684 80.9224 476.684 78.5108V52.3099C476.684 49.8984 479.132 47.9431 482.151 47.9431H514.957C517.976 47.9431 520.425 49.8984 520.425 52.3099V78.5108C520.425 80.9224 517.976 82.8776 514.957 82.8776Z" stroke="white" stroke-opacity="0.501961" stroke-width="2" stroke-miterlimit="10"/>
<path id="Vector_206" d="M566.898 82.8776H534.093C531.073 82.8776 528.625 80.9224 528.625 78.5108V52.3099C528.625 49.8984 531.073 47.9431 534.093 47.9431H566.898C569.918 47.9431 572.366 49.8984 572.366 52.3099V78.5108C572.366 80.9224 569.918 82.8776 566.898 82.8776Z" stroke="white" stroke-opacity="0.501961" stroke-width="2" stroke-miterlimit="10"/>
<path id="Vector_207" d="M618.842 82.8776H586.036C583.016 82.8776 580.568 80.9224 580.568 78.5108V52.3099C580.568 49.8984 583.016 47.9431 586.036 47.9431H618.842C621.861 47.9431 624.309 49.8984 624.309 52.3099V78.5108C624.309 80.9224 621.861 82.8776 618.842 82.8776Z" stroke="white" stroke-opacity="0.501961" stroke-width="2" stroke-miterlimit="10"/>
<path id="Vector_208" d="M670.785 82.8776H637.979C634.96 82.8776 632.512 80.9224 632.512 78.5108V52.3099C632.512 49.8984 634.96 47.9431 637.979 47.9431H670.785C673.805 47.9431 676.253 49.8984 676.253 52.3099V78.5108C676.253 80.9224 673.805 82.8776 670.785 82.8776Z" stroke="white" stroke-opacity="0.501961" stroke-width="2" stroke-miterlimit="10"/>
<path id="Vector_209" d="M748.697 82.8776H688.554C685.534 82.8776 683.086 80.9224 683.086 78.5108V52.3099C683.086 49.8984 685.534 47.9431 688.554 47.9431H748.697C751.717 47.9431 754.165 49.8984 754.165 52.3099V78.5108C754.165 80.9224 751.717 82.8776 748.697 82.8776Z" stroke="white" stroke-opacity="0.501961" stroke-width="2" stroke-miterlimit="10"/>
<path id="Vector_210" d="M663.95 123.271H696.756C699.775 123.271 702.223 121.315 702.223 118.904V92.703C702.223 90.2914 699.775 88.3362 696.756 88.3362H663.95C660.931 88.3362 658.482 90.2914 658.482 92.703V118.904C658.482 121.315 660.931 123.271 663.95 123.271Z" stroke="white" stroke-opacity="0.501961" stroke-width="2" stroke-miterlimit="10"/>
<path id="Vector_211" d="M715.891 123.271H748.697C751.717 123.271 754.165 121.315 754.165 118.904V92.703C754.165 90.2914 751.717 88.3362 748.697 88.3362H715.891C712.872 88.3362 710.424 90.2914 710.424 92.703V118.904C710.424 121.315 712.872 123.271 715.891 123.271Z" stroke="white" stroke-opacity="0.501961" stroke-width="2" stroke-miterlimit="10"/>
<path id="Vector_212" d="M612.007 123.271H644.812C647.832 123.271 650.28 121.315 650.28 118.904V92.703C650.28 90.2914 647.832 88.3362 644.812 88.3362H612.007C608.987 88.3362 606.539 90.2914 606.539 92.703V118.904C606.539 121.315 608.987 123.271 612.007 123.271Z" stroke="white" stroke-opacity="0.501961" stroke-width="2" stroke-miterlimit="10"/>
<path id="Vector_213" d="M560.065 123.271H592.871C595.891 123.271 598.339 121.315 598.339 118.904V92.703C598.339 90.2914 595.891 88.3362 592.871 88.3362H560.065C557.046 88.3362 554.598 90.2914 554.598 92.703V118.904C554.598 121.315 557.046 123.271 560.065 123.271Z" stroke="white" stroke-opacity="0.501961" stroke-width="2" stroke-miterlimit="10"/>
<path id="Vector_214" d="M508.122 123.271H540.928C543.947 123.271 546.395 121.315 546.395 118.904V92.703C546.395 90.2914 543.947 88.3362 540.928 88.3362H508.122C505.102 88.3362 502.654 90.2914 502.654 92.703V118.904C502.654 121.315 505.102 123.271 508.122 123.271Z" stroke="white" stroke-opacity="0.501961" stroke-width="2" stroke-miterlimit="10"/>
<path id="Vector_215" d="M456.181 123.271H488.986C492.006 123.271 494.454 121.315 494.454 118.904V92.703C494.454 90.2914 492.006 88.3362 488.986 88.3362H456.181C453.161 88.3362 450.713 90.2914 450.713 92.703V118.904C450.713 121.315 453.16 123.271 456.181 123.271Z" stroke="white" stroke-opacity="0.501961" stroke-width="2" stroke-miterlimit="10"/>
<path id="Vector_216" d="M404.237 123.271H437.043C440.062 123.271 442.511 121.315 442.511 118.904V92.703C442.511 90.2914 440.062 88.3362 437.043 88.3362H404.237C401.218 88.3362 398.77 90.2914 398.77 92.703V118.904C398.77 121.315 401.218 123.271 404.237 123.271Z" stroke="white" stroke-opacity="0.501961" stroke-width="2" stroke-miterlimit="10"/>
<path id="Vector_217" d="M352.296 123.271H385.102C388.121 123.271 390.569 121.315 390.569 118.904V92.703C390.569 90.2914 388.121 88.3362 385.102 88.3362H352.296C349.276 88.3362 346.828 90.2914 346.828 92.703V118.904C346.828 121.315 349.276 123.271 352.296 123.271Z" stroke="white" stroke-opacity="0.501961" stroke-width="2" stroke-miterlimit="10"/>
<path id="Vector_218" d="M300.352 123.271H333.158C336.178 123.271 338.626 121.315 338.626 118.904V92.703C338.626 90.2914 336.178 88.3362 333.158 88.3362H300.352C297.333 88.3362 294.885 90.2914 294.885 92.703V118.904C294.885 121.315 297.333 123.271 300.352 123.271Z" stroke="white" stroke-opacity="0.501961" stroke-width="2" stroke-miterlimit="10"/>
<path id="Vector_219" d="M248.411 123.271H281.217C284.236 123.271 286.684 121.315 286.684 118.904V92.703C286.684 90.2914 284.236 88.3362 281.217 88.3362H248.411C245.391 88.3362 242.943 90.2914 242.943 92.703V118.904C242.943 121.315 245.391 123.271 248.411 123.271Z" stroke="white" stroke-opacity="0.501961" stroke-width="2" stroke-miterlimit="10"/>
<path id="Vector_220" d="M196.468 123.271H229.273C232.293 123.271 234.741 121.315 234.741 118.904V92.703C234.741 90.2914 232.293 88.3362 229.273 88.3362H196.468C193.448 88.3362 191 90.2914 191 92.703V118.904C191 121.315 193.448 123.271 196.468 123.271Z" stroke="white" stroke-opacity="0.501961" stroke-width="2" stroke-miterlimit="10"/>
<path id="Vector_221" d="M144.524 123.271H177.33C180.35 123.271 182.798 121.315 182.798 118.904V92.703C182.798 90.2914 180.35 88.3362 177.33 88.3362H144.524C141.505 88.3362 139.057 90.2914 139.057 92.703V118.904C139.057 121.315 141.505 123.271 144.524 123.271Z" stroke="white" stroke-opacity="0.501961" stroke-width="2" stroke-miterlimit="10"/>
<path id="Vector_222" d="M92.5829 123.271H125.389C128.408 123.271 130.856 121.315 130.856 118.904V92.703C130.856 90.2914 128.408 88.3362 125.389 88.3362H92.5829C89.5634 88.3362 87.1152 90.2914 87.1152 92.703V118.904C87.1152 121.315 89.5634 123.271 92.5829 123.271Z" stroke="white" stroke-opacity="0.501961" stroke-width="2" stroke-miterlimit="10"/>
<path id="Vector_223" d="M676.253 163.664H748.699C751.718 163.664 754.166 161.709 754.166 159.297V133.096C754.166 130.684 751.718 128.729 748.699 128.729H676.253C673.233 128.729 670.785 130.684 670.785 133.096V159.297C670.785 161.709 673.233 163.664 676.253 163.664Z" stroke="white" stroke-opacity="0.501961" stroke-width="2" stroke-miterlimit="10"/>
<path id="Vector_224" d="M14.6688 163.664H87.1148C90.1343 163.664 92.5825 161.709 92.5825 159.297V133.096C92.5825 130.684 90.1343 128.729 87.1148 128.729H14.6688C11.6493 128.729 9.20117 130.684 9.20117 133.096V159.297C9.20117 161.709 11.6493 163.664 14.6688 163.664Z" stroke="white" stroke-opacity="0.501961" stroke-width="2" stroke-miterlimit="10"/>
<path id="Vector_225" d="M624.309 163.664H657.115C660.135 163.664 662.583 161.709 662.583 159.297V133.096C662.583 130.684 660.135 128.729 657.115 128.729H624.309C621.29 128.729 618.842 130.684 618.842 133.096V159.297C618.842 161.709 621.29 163.664 624.309 163.664Z" stroke="white" stroke-opacity="0.501961" stroke-width="2" stroke-miterlimit="10"/>
<path id="Vector_226" d="M572.366 163.664H605.172C608.191 163.664 610.639 161.709 610.639 159.297V133.096C610.639 130.684 608.191 128.729 605.172 128.729H572.366C569.347 128.729 566.898 130.684 566.898 133.096V159.297C566.898 161.709 569.347 163.664 572.366 163.664Z" stroke="white" stroke-opacity="0.501961" stroke-width="2" stroke-miterlimit="10"/>
<path id="Vector_227" d="M520.425 163.664H553.23C556.25 163.664 558.698 161.709 558.698 159.297V133.096C558.698 130.684 556.25 128.729 553.23 128.729H520.425C517.405 128.729 514.957 130.684 514.957 133.096V159.297C514.957 161.709 517.405 163.664 520.425 163.664Z" stroke="white" stroke-opacity="0.501961" stroke-width="2" stroke-miterlimit="10"/>
<path id="Vector_228" d="M468.481 163.664H501.287C504.307 163.664 506.755 161.709 506.755 159.297V133.096C506.755 130.684 504.307 128.729 501.287 128.729H468.481C465.462 128.729 463.014 130.684 463.014 133.096V159.297C463.014 161.709 465.46 163.664 468.481 163.664Z" stroke="white" stroke-opacity="0.501961" stroke-width="2" stroke-miterlimit="10"/>
<path id="Vector_229" d="M416.54 163.664H449.346C452.365 163.664 454.813 161.709 454.813 159.297V133.096C454.813 130.684 452.365 128.729 449.346 128.729H416.54C413.52 128.729 411.072 130.684 411.072 133.096V159.297C411.072 161.709 413.52 163.664 416.54 163.664Z" stroke="white" stroke-opacity="0.501961" stroke-width="2" stroke-miterlimit="10"/>
<path id="Vector_230" d="M364.597 163.664H397.402C400.422 163.664 402.87 161.709 402.87 159.297V133.096C402.87 130.684 400.422 128.729 397.402 128.729H364.597C361.577 128.729 359.129 130.684 359.129 133.096V159.297C359.129 161.709 361.577 163.664 364.597 163.664Z" stroke="white" stroke-opacity="0.501961" stroke-width="2" stroke-miterlimit="10"/>
<path id="Vector_231" d="M312.655 163.664H345.461C348.48 163.664 350.929 161.709 350.929 159.297V133.096C350.929 130.684 348.48 128.729 345.461 128.729H312.655C309.636 128.729 307.188 130.684 307.188 133.096V159.297C307.188 161.709 309.636 163.664 312.655 163.664Z" stroke="white" stroke-opacity="0.501961" stroke-width="2" stroke-miterlimit="10"/>
<path id="Vector_232" d="M260.712 163.664H293.518C296.537 163.664 298.985 161.709 298.985 159.297V133.096C298.985 130.684 296.537 128.729 293.518 128.729H260.712C257.692 128.729 255.244 130.684 255.244 133.096V159.297C255.244 161.709 257.692 163.664 260.712 163.664Z" stroke="white" stroke-opacity="0.501961" stroke-width="2" stroke-miterlimit="10"/>
<path id="Vector_233" d="M208.77 163.664H241.576C244.596 163.664 247.044 161.709 247.044 159.297V133.096C247.044 130.684 244.596 128.729 241.576 128.729H208.77C205.751 128.729 203.303 130.684 203.303 133.096V159.297C203.303 161.709 205.751 163.664 208.77 163.664Z" stroke="white" stroke-opacity="0.501961" stroke-width="2" stroke-miterlimit="10"/>
<path id="Vector_234" d="M156.827 163.664H189.633C192.652 163.664 195.1 161.709 195.1 159.297V133.096C195.1 130.684 192.652 128.729 189.633 128.729H156.827C153.808 128.729 151.359 130.684 151.359 133.096V159.297C151.359 161.709 153.808 163.664 156.827 163.664Z" stroke="white" stroke-opacity="0.501961" stroke-width="2" stroke-miterlimit="10"/>
<path id="Vector_235" d="M104.886 163.664H137.691C140.711 163.664 143.159 161.709 143.159 159.297V133.096C143.159 130.684 140.711 128.729 137.691 128.729H104.886C101.866 128.729 99.418 130.684 99.418 133.096V159.297C99.418 161.709 101.866 163.664 104.886 163.664Z" stroke="white" stroke-opacity="0.501961" stroke-width="2" stroke-miterlimit="10"/>
<path id="Vector_236" d="M651.647 204.057H748.698C751.717 204.057 754.165 202.102 754.165 199.69V173.489C754.165 171.078 751.717 169.122 748.698 169.122H651.647C648.628 169.122 646.18 171.078 646.18 173.489V199.69C646.18 202.102 648.628 204.057 651.647 204.057Z" stroke="white" stroke-opacity="0.501961" stroke-width="2" stroke-miterlimit="10"/>
<path id="Vector_237" d="M599.706 204.057H632.512C635.531 204.057 637.979 202.102 637.979 199.69V173.489C637.979 171.078 635.531 169.122 632.512 169.122H599.706C596.686 169.122 594.238 171.078 594.238 173.489V199.69C594.238 202.102 596.686 204.057 599.706 204.057Z" stroke="white" stroke-opacity="0.501961" stroke-width="2" stroke-miterlimit="10"/>
<path id="Vector_238" d="M547.763 204.057H580.568C583.588 204.057 586.036 202.102 586.036 199.69V173.489C586.036 171.078 583.588 169.122 580.568 169.122H547.763C544.743 169.122 542.295 171.078 542.295 173.489V199.69C542.295 202.102 544.743 204.057 547.763 204.057Z" stroke="white" stroke-opacity="0.501961" stroke-width="2" stroke-miterlimit="10"/>
<path id="Vector_239" d="M495.819 204.057H528.625C531.644 204.057 534.093 202.102 534.093 199.69V173.489C534.093 171.078 531.644 169.122 528.625 169.122H495.819C492.8 169.122 490.352 171.078 490.352 173.489V199.69C490.352 202.102 492.798 204.057 495.819 204.057Z" stroke="white" stroke-opacity="0.501961" stroke-width="2" stroke-miterlimit="10"/>
<path id="Vector_240" d="M443.878 204.057H476.684C479.703 204.057 482.151 202.102 482.151 199.69V173.489C482.151 171.078 479.703 169.122 476.684 169.122H443.878C440.858 169.122 438.41 171.078 438.41 173.489V199.69C438.41 202.102 440.857 204.057 443.878 204.057Z" stroke="white" stroke-opacity="0.501961" stroke-width="2" stroke-miterlimit="10"/>
<path id="Vector_241" d="M391.934 204.057H424.74C427.76 204.057 430.208 202.102 430.208 199.69V173.489C430.208 171.078 427.76 169.122 424.74 169.122H391.934C388.915 169.122 386.467 171.078 386.467 173.489V199.69C386.467 202.102 388.915 204.057 391.934 204.057Z" stroke="white" stroke-opacity="0.501961" stroke-width="2" stroke-miterlimit="10"/>
<path id="Vector_242" d="M339.993 204.057H372.799C375.818 204.057 378.266 202.102 378.266 199.69V173.489C378.266 171.078 375.818 169.122 372.799 169.122H339.993C336.974 169.122 334.525 171.078 334.525 173.489V199.69C334.525 202.102 336.974 204.057 339.993 204.057Z" stroke="white" stroke-opacity="0.501961" stroke-width="2" stroke-miterlimit="10"/>
<path id="Vector_243" d="M288.05 204.057H320.855C323.875 204.057 326.323 202.102 326.323 199.69V173.489C326.323 171.078 323.875 169.122 320.855 169.122H288.05C285.03 169.122 282.582 171.078 282.582 173.489V199.69C282.582 202.102 285.03 204.057 288.05 204.057Z" stroke="white" stroke-opacity="0.501961" stroke-width="2" stroke-miterlimit="10"/>
<path id="Vector_244" d="M236.108 204.057H268.914C271.934 204.057 274.382 202.102 274.382 199.69V173.489C274.382 171.078 271.934 169.122 268.914 169.122H236.108C233.089 169.122 230.641 171.078 230.641 173.489V199.69C230.641 202.102 233.089 204.057 236.108 204.057Z" stroke="white" stroke-opacity="0.501961" stroke-width="2" stroke-miterlimit="10"/>
<path id="Vector_245" d="M184.165 204.057H216.971C219.99 204.057 222.438 202.102 222.438 199.69V173.489C222.438 171.078 219.99 169.122 216.971 169.122H184.165C181.145 169.122 178.697 171.078 178.697 173.489V199.69C178.697 202.102 181.145 204.057 184.165 204.057Z" stroke="white" stroke-opacity="0.501961" stroke-width="2" stroke-miterlimit="10"/>
<path id="Vector_246" d="M132.223 204.057H165.029C168.049 204.057 170.497 202.102 170.497 199.69V173.489C170.497 171.078 168.049 169.122 165.029 169.122H132.223C129.204 169.122 126.756 171.078 126.756 173.489V199.69C126.756 202.102 129.204 204.057 132.223 204.057Z" stroke="white" stroke-opacity="0.501961" stroke-width="2" stroke-miterlimit="10"/>
<path id="Vector_247" d="M14.6688 204.057H113.086C116.106 204.057 118.554 202.102 118.554 199.69V173.489C118.554 171.078 116.106 169.122 113.086 169.122H14.6688C11.6493 169.122 9.20117 171.078 9.20117 173.489V199.69C9.20117 202.102 11.6493 204.057 14.6688 204.057Z" stroke="white" stroke-opacity="0.501961" stroke-width="2" stroke-miterlimit="10"/>
<path id="Vector_248" d="M14.6688 123.271H74.8127C77.8322 123.271 80.2803 121.315 80.2803 118.904V92.703C80.2803 90.2914 77.8322 88.3362 74.8127 88.3362H14.6688C11.6493 88.3362 9.20117 90.2914 9.20117 92.703V118.904C9.20117 121.315 11.6493 123.271 14.6688 123.271Z" stroke="white" stroke-opacity="0.501961" stroke-width="2" stroke-miterlimit="10"/>
<path id="Vector_249" d="M748.697 42.4848H715.891C712.872 42.4848 710.424 40.5296 710.424 38.118V11.9171C710.424 9.50553 712.872 7.55029 715.891 7.55029H737.762C746.82 7.55029 754.165 13.416 754.165 20.6507V38.118C754.165 40.5296 751.717 42.4848 748.697 42.4848Z" stroke="white" stroke-opacity="0.501961" stroke-width="2" stroke-miterlimit="10"/>
<path id="Vector_250" d="M170.497 209.515H216.972C219.991 209.515 222.439 211.47 222.439 213.882V240.083C222.439 242.495 219.991 244.45 216.972 244.45H170.497C167.477 244.45 165.029 242.495 165.029 240.083V213.882C165.029 211.47 167.477 209.515 170.497 209.515Z" stroke="white" stroke-opacity="0.501961" stroke-width="2" stroke-miterlimit="10"/>
<path id="Vector_251" d="M236.108 209.515H476.684C479.703 209.515 482.151 211.47 482.151 213.882V240.083C482.151 242.495 479.703 244.45 476.684 244.45H236.108C233.089 244.45 230.641 242.495 230.641 240.083V213.882C230.641 211.47 233.089 209.515 236.108 209.515Z" stroke="white" stroke-opacity="0.501961" stroke-width="2" stroke-miterlimit="10"/>
<path id="Vector_252" d="M118.554 209.515H151.359C154.379 209.515 156.827 211.47 156.827 213.882V240.083C156.827 242.495 154.379 244.45 151.359 244.45H118.554C115.534 244.45 113.086 242.495 113.086 240.083V213.882C113.086 211.47 115.534 209.515 118.554 209.515Z" stroke="white" stroke-opacity="0.501961" stroke-width="2" stroke-miterlimit="10"/>
<path id="Vector_253" d="M66.6122 209.515H99.4179C102.437 209.515 104.886 211.47 104.886 213.882V240.083C104.886 242.495 102.437 244.45 99.4179 244.45H66.6122C63.5927 244.45 61.1445 242.495 61.1445 240.083V213.882C61.1445 211.47 63.5927 209.515 66.6122 209.515Z" stroke="white" stroke-opacity="0.501961" stroke-width="2" stroke-miterlimit="10"/>
<path id="Vector_254" d="M542.294 209.515H495.819C492.8 209.515 490.352 211.47 490.352 213.882V240.083C490.352 242.495 492.8 244.45 495.819 244.45H542.294C545.314 244.45 547.762 242.495 547.762 240.083V213.882C547.762 211.47 545.314 209.515 542.294 209.515Z" stroke="white" stroke-opacity="0.501961" stroke-width="2" stroke-miterlimit="10"/>
<path id="Vector_255" d="M594.238 209.515H561.432C558.413 209.515 555.965 211.47 555.965 213.882V240.083C555.965 242.495 558.413 244.45 561.432 244.45H594.238C597.258 244.45 599.706 242.495 599.706 240.083V213.882C599.706 211.47 597.258 209.515 594.238 209.515Z" stroke="white" stroke-opacity="0.501961" stroke-width="2" stroke-miterlimit="10"/>
<path id="Vector_256" d="M646.18 209.515H613.374C610.354 209.515 607.906 211.47 607.906 213.882V240.083C607.906 242.495 610.354 244.45 613.374 244.45H646.18C649.199 244.45 651.647 242.495 651.647 240.083V213.882C651.647 211.47 649.199 209.515 646.18 209.515Z" stroke="white" stroke-opacity="0.501961" stroke-width="2" stroke-miterlimit="10"/>
<path id="Vector_257" d="M698.123 209.515H665.317C662.298 209.515 659.85 211.47 659.85 213.882V240.083C659.85 242.495 662.298 244.45 665.317 244.45H698.123C701.142 244.45 703.591 242.495 703.591 240.083V213.882C703.591 211.47 701.142 209.515 698.123 209.515Z" stroke="white" stroke-opacity="0.501961" stroke-width="2" stroke-miterlimit="10"/>
<path id="Vector_258" d="M748.697 209.515H715.891C712.872 209.515 710.424 211.47 710.424 213.882V240.083C710.424 242.495 712.872 244.45 715.891 244.45H737.762C746.82 244.45 754.165 238.584 754.165 231.349V213.882C754.165 211.47 751.717 209.515 748.697 209.515Z" stroke="white" stroke-opacity="0.501961" stroke-width="2" stroke-miterlimit="10"/>
<path id="Vector_259" d="M14.6688 209.515H47.4746C50.4941 209.515 52.9422 211.47 52.9422 213.882V240.083C52.9422 242.495 50.4941 244.45 47.4746 244.45H25.6041C16.5456 244.45 9.20117 238.584 9.20117 231.349V213.882C9.20117 211.47 11.6493 209.515 14.6688 209.515Z" stroke="white" stroke-opacity="0.501961" stroke-width="2" stroke-miterlimit="10"/>
<path id="Vector_260" d="M659.85 226.983H703.591" stroke="white" stroke-opacity="0.501961" stroke-width="2" stroke-miterlimit="10"/>
</g>
</g>
</svg>
