<svg width="30" height="20" viewBox="0 0 30 20" fill="none" xmlns="http://www.w3.org/2000/svg">
<path d="M29.9657 8.4301C29.8542 8.05953 29.4827 7.75316 28.9782 7.61562L27.2089 7.13422V8.40771L27.5439 8.49889C27.6951 8.54024 27.8066 8.63221 27.8397 8.74308C27.8728 8.85433 27.8243 8.97025 27.7094 9.05061L16.3559 16.9983C16.1312 17.1552 15.7956 17.2046 15.4992 17.1243L12.9759 16.4373V17.7108L14.747 18.193C15.7536 18.4669 16.8961 18.2988 17.66 17.7641L29.5307 9.45399C29.9132 9.18622 30.0772 8.801 29.9657 8.4301Z" fill="#C9D0DC" stroke="#C9D0DC" stroke-width="0.00064"/>
<path d="M1.81137 11.7919C1.89082 11.0168 2.24631 10.0015 3.4793 10.0494L14.741 13.1156C15.7505 13.3904 16.8962 13.2203 17.66 12.6825L28.5451 5.01225C28.9259 4.74406 29.0882 4.35926 28.9761 3.98951C28.8641 3.61939 28.4932 3.31375 27.9899 3.17695L16.7968 0.129653C15.7874 -0.145096 14.6411 0.0249301 13.8778 0.562778L1.26832 9.44781C0.270996 10.0224 0 11.0938 0 12.0454C0 12.997 0.0905273 14.1391 1.63148 14.5831L1.26832 14.5236L4.66336 15.4478V14.597C4.66336 14.4587 4.68797 14.3235 4.72822 14.1917L2.44658 13.5704C1.7209 13.378 1.72031 12.6868 1.81137 11.7919Z" fill="#C9D0DC" stroke="#C9D0DC" stroke-width="0.00064"/>
<path d="M6.50671 13.9649C6.26718 14.1334 6.13283 14.3605 6.13283 14.597V18.538L8.5248 18.1794L11.5065 20V16.0602C11.5065 15.8225 11.6412 15.5954 11.8807 15.4277L12.8341 14.76L7.46074 13.2972L6.50671 13.9649Z" fill="#C9D0DC" stroke="#C9D0DC" stroke-width="0.00064"/>
</svg>
