<svg width="64" height="60" viewBox="0 0 64 60" fill="none" xmlns="http://www.w3.org/2000/svg">
<path d="M12.5218 34.3596V60H16.6956V46.0227C22.6958 46.0227 27.9361 42.8364 30.753 38.1877C30.753 38.1877 30.77 34.4215 30.77 34.3598C26.6699 34.3597 16.0098 34.3596 12.5218 34.3596Z" fill="#C9D0DC" stroke="#C9D0DC" stroke-width="0.00064"/>
<path d="M54.0036 37.2036V48.8613V51.8181V60H58.1775V51.8181V48.8613V37.0213C56.821 37.0213 55.6225 37.2036 54.0036 37.2036Z" fill="#C9D0DC" stroke="#C9D0DC" stroke-width="0.00064"/>
<path d="M50.8286 7.7756L50.7656 28.433C50.7656 31.2844 50.324 34.545 49.8297 37.0323V41.1488C51.3229 41.0165 52.7265 40.6543 54.0036 40.0894C55.6226 39.3732 57.0386 38.3314 58.1775 37.0213C60.0866 34.825 61.2174 31.874 61.2174 28.4333V7.72733L50.8286 7.7756Z" fill="#C9D0DC" stroke="#C9D0DC" stroke-width="0.00064"/>
<path d="M45.6557 40.936L47.17 38.8728L47.107 32.1342L23.2006 32.0724C23.0744 33.618 23.1592 35.2872 23.1592 36.7876C23.1594 36.7874 45.6557 40.936 45.6557 40.936Z" fill="#C9D0DC" stroke="#C9D0DC" stroke-width="0.00064"/>
<path d="M24.6051 21.7878L8.35075 22.4927C5.82675 20.7678 4.17387 17.9034 4.17387 14.659C4.17387 9.38726 8.53425 5.1136 13.913 5.1136L15.7797 3.11478L13.913 1.02274C6.229 1.02274 0 7.12785 0 14.6592C0 20.2507 3.43425 25.0553 8.34787 27.1597V37.3143L10.459 39.3674L8.34787 41.4052V41.5909H4.17387V60H8.34775V46.0227C9.79075 46.0227 11.1896 45.8375 12.5216 45.493C17.2686 44.265 21.164 41.0021 23.1593 36.7874C23.7455 35.5489 24.167 34.2283 24.3985 32.8533C25.5345 31.5778 27.5529 29.2285 28.4991 27.9921L24.6051 21.7878Z" fill="#C9D0DC" stroke="#C9D0DC" stroke-width="0.00064"/>
<path d="M61.2174 2.33769V1.8507L61.2171 2.33708L59.8261 0H51.4782C50.1851 0 49.1369 1.02752 49.1369 2.29481C49.1369 3.154 49.6194 3.9017 50.3325 4.2951L45.913 20.8635L24.605 21.7876V30.3952C24.605 31.2296 24.5338 32.0505 24.3985 32.8532L45.6555 36.7734V36.7351L45.6556 46.3637H45.6526L46.9946 48.5001L45.6526 50.4544H45.6556V59.9999H49.8295V50.4691L48.5827 48.5235L49.8295 46.3445V37.0323C51.434 36.828 52.8808 36.2377 54.0604 35.2785C55.9845 33.7158 57.0434 31.2844 57.0434 28.433V17.2726V13.1818V9.09091L61.2172 7.72733L61.36 7.68065C62.8121 7.20627 64 5.59093 64 4.09099V2.72741L61.2174 2.33769Z" fill="#C9D0DC" stroke="#C9D0DC" stroke-width="0.00064"/>
<path d="M17.5978 5.11372C18.7503 5.11372 19.6848 4.19793 19.6848 3.06823C19.6848 1.93853 18.7504 1.02274 17.5978 1.02274H13.913V5.11372H17.5978Z" fill="#C9D0DC" stroke="#C9D0DC" stroke-width="0.00064"/>
<path d="M34.3443 24.5154H30.1704V28.6063H34.3443V24.5154Z" fill="#C9D0DC" stroke="#C9D0DC" stroke-width="0.00064"/>
<path d="M42.7826 28.6064H38.6087V32.6972H42.7826V28.6064Z" fill="#C9D0DC" stroke="#C9D0DC" stroke-width="0.00064"/>
<path d="M49.7391 24.5154H45.5652V28.6063H49.7391V24.5154Z" fill="#C9D0DC" stroke="#C9D0DC" stroke-width="0.00064"/>
<path d="M49.8268 46.3636H45.6529V50.4545H49.8268V46.3636Z" fill="#C9D0DC" stroke="#C9D0DC" stroke-width="0.00064"/>
<path d="M58.1774 51.8181H54.0035V55.909H58.1774V51.8181Z" fill="#C9D0DC" stroke="#C9D0DC" stroke-width="0.00064"/>
<path d="M57.0435 13.1823H52.8696V17.2731H57.0435V13.1823Z" fill="#C9D0DC" stroke="#C9D0DC" stroke-width="0.00064"/>
<path d="M18.5628 29.1327H14.3889V33.2236H18.5628V29.1327Z" fill="#C9D0DC" stroke="#C9D0DC" stroke-width="0.00064"/>
<path d="M12.5218 37.3146H8.34788V41.4054H12.5218V37.3146Z" fill="#C9D0DC" stroke="#C9D0DC" stroke-width="0.00064"/>
</svg>
