<svg width="30" height="20" viewBox="0 0 30 20" fill="none" xmlns="http://www.w3.org/2000/svg">
<path d="M23.2983 8.08623C23.2777 8.04632 23.0624 7.72953 22.7877 7.53201C22.7035 7.47137 22.4865 7.36881 22.4865 7.36881C22.2483 7.26676 21.99 7.21472 21.7195 7.21472H18.8959C18.5712 7.21472 18.3077 7.44108 18.3077 7.71992C18.3077 7.99881 18.5713 8.22512 18.8959 8.22512H21.7195C21.9365 8.22512 22.0906 8.32868 22.1741 8.42722C22.243 8.50804 22.2783 8.63385 22.2783 8.70561C22.2783 8.9845 22.5418 9.21081 22.8665 9.21081C23.1912 9.21081 23.4547 8.9845 23.4547 8.70561C23.4547 8.48886 23.4017 8.27972 23.2983 8.08623Z" fill="#C9D0DC" stroke="#C9D0DC" stroke-width="0.00064"/>
<path d="M23.2983 8.08623C23.2777 8.04632 23.0624 7.72953 22.7877 7.53201C22.7035 7.47137 22.4865 7.36881 22.4865 7.36881C22.2483 7.26676 21.99 7.21472 21.7195 7.21472H18.8959C18.5712 7.21472 18.3077 7.44108 18.3077 7.71992C18.3077 7.99881 18.5713 8.22512 18.8959 8.22512H21.7195C21.9365 8.22512 22.0906 8.32868 22.1741 8.42722C22.243 8.50804 22.2783 8.63385 22.2783 8.70561C22.2783 8.9845 22.5418 9.21081 22.8665 9.21081C23.1912 9.21081 23.4547 8.9845 23.4547 8.70561C23.4547 8.48886 23.4017 8.27972 23.2983 8.08623Z" fill="#C9D0DC" stroke="#C9D0DC" stroke-width="0.00064"/>
<path d="M29.9747 11.7066L29.1176 9.27298V8.86173C29.1176 6.64437 27.017 4.84032 24.4359 4.84032H13.6677C14.1448 4.61347 14.5518 4.27801 14.833 3.86022C14.9383 3.70361 14.9383 3.51062 14.8324 3.35402C14.2883 2.54668 13.2766 2.04555 12.1919 2.04555C11.5207 2.04555 10.8825 2.23195 10.3601 2.56998C10.3301 2.54622 10.2995 2.52348 10.2677 2.50179C10.913 2.01375 11.3207 1.29941 11.3207 0.505198C11.3207 0.225802 11.0572 0 10.7325 0C10.4077 0 10.1442 0.225802 10.1442 0.505198C10.1442 1.4151 9.28191 2.15571 8.22247 2.15571H6.68895C5.62957 2.15571 4.76719 1.4151 4.76719 0.505198C4.76719 0.225802 4.50427 0 4.17896 0C3.85423 0 3.59074 0.225802 3.59074 0.505198C3.59074 1.29991 3.99837 2.01425 4.64367 2.50179C4.61191 2.52353 4.58133 2.54572 4.55133 2.56947C4.02896 2.232 3.39076 2.04555 2.72015 2.04555C1.63487 2.04555 0.622487 2.54723 0.0789699 3.35402C-0.0263233 3.51062 -0.0263233 3.70311 0.0789699 3.85972C0.622487 4.66756 1.63423 5.16919 2.72015 5.16919C3.21427 5.16919 3.69486 5.06613 4.12423 4.87464L4.51013 7.2784C4.04718 7.52544 3.73839 7.96597 3.73839 8.46714V8.90365C3.73839 9.67461 4.46842 10.3015 5.36602 10.3015H5.66895V10.684C5.66895 11.9111 6.33774 13.0499 7.47188 13.7784L8.02132 19.5362C8.04604 19.7984 8.30134 20 8.6072 20H12.7684C13.0748 20 13.3295 19.7984 13.3548 19.5362L13.8301 14.5499H15.6484C15.7037 14.6393 15.7637 14.7262 15.8266 14.8105V16.1645C15.8266 16.4439 16.0901 16.6697 16.4148 16.6697C16.7401 16.6697 17.0031 16.4439 17.0031 16.1645V15.8472C17.276 16.0063 17.5701 16.1382 17.8807 16.2387V17.0652C17.8807 17.3441 18.1436 17.5704 18.4689 17.5704C18.7936 17.5704 19.0571 17.3441 19.0571 17.0652V16.4621C19.1624 16.4686 19.773 16.4595 19.9683 16.4358L19.9172 19.4877C19.9154 19.6231 19.976 19.7535 20.0866 19.8494C20.1971 19.9459 20.3483 20 20.5054 20H24.7783C25.0671 20 25.313 19.8201 25.3589 19.5751L26.2119 15.0328C26.2171 15.006 26.2195 14.9793 26.2195 14.9525V8.70563C26.2195 8.14487 26.0824 7.60329 25.8118 7.09653C25.7536 6.98688 25.4642 6.55948 25.3854 6.46452C25.2036 6.24626 24.9966 6.04572 24.7683 5.86486C26.546 6.00884 27.9413 7.29762 27.9413 8.86173V9.27298L27.0842 11.7066C27.0301 11.8597 27.0636 12.0254 27.1748 12.1537C27.2859 12.282 27.4607 12.3578 27.6471 12.3578H29.4118C29.5976 12.3578 29.773 12.282 29.8841 12.1537C29.9952 12.0253 30.0287 11.8597 29.9747 11.7066ZM3.95836 3.75565C3.61892 4.01381 3.17894 4.15879 2.72015 4.15879C2.17546 4.15879 1.66071 3.95317 1.30839 3.60709C1.66071 3.26152 2.17546 3.0559 2.72015 3.0559C3.19247 3.0559 3.63896 3.20647 3.98191 3.4757C3.96421 3.56819 3.95601 3.6617 3.95836 3.75565ZM12.1918 3.05595C12.7359 3.05595 13.2506 3.26157 13.603 3.60714C13.2506 3.95322 12.7365 4.15884 12.1918 4.15884C11.7329 4.15884 11.293 4.01386 10.953 3.7562C10.9553 3.66175 10.9471 3.56774 10.9294 3.4758C11.2724 3.20647 11.7194 3.05595 12.1918 3.05595ZM5.29535 3.35905C5.4218 3.23475 5.59711 3.16606 5.78947 3.16606H9.12183C9.31419 3.16606 9.48944 3.23475 9.61595 3.35905C9.74181 3.48335 9.79712 3.64197 9.77064 3.80512L9.66066 4.49168C9.55595 4.37951 9.39651 4.3073 9.21651 4.3073C8.90356 4.3073 8.64944 4.52505 8.64944 4.79383C8.64944 5.0626 8.90356 5.28035 9.21651 5.28035C9.34062 5.28035 9.45534 5.24548 9.54886 5.18741V5.18791L9.24651 7.06931H5.66473L5.36238 5.18741V5.1869C5.4559 5.24553 5.57062 5.28035 5.69531 5.28035C6.00826 5.28035 6.2618 5.0626 6.2618 4.79383C6.2618 4.52505 6.00826 4.3073 5.69531 4.3073C5.51531 4.3073 5.35529 4.37956 5.25117 4.49168L5.14066 3.80517C5.11418 3.64197 5.16943 3.48335 5.29535 3.35905ZM5.36602 9.29119C5.11717 9.29119 4.91484 9.11743 4.91484 8.9037V8.46719C4.91484 8.25347 5.11717 8.0797 5.36602 8.0797H9.54599C9.79425 8.0797 9.99658 8.25347 9.99658 8.46719V8.9037C9.99658 9.11743 9.79425 9.29119 9.54599 9.29119H5.36602ZM9.14942 18.9896L8.70651 14.3397C9.01296 14.4301 9.3306 14.4923 9.65474 14.5241L10.0806 18.9896H9.14942ZM20.3736 15.3177C20.0553 15.4132 19.7194 15.4617 19.3753 15.4617C18.4677 15.4617 17.6312 15.1197 17.063 14.5498H20.2559C20.4729 14.7458 20.7141 14.9211 20.9736 15.0722C20.7847 15.1723 20.5836 15.2551 20.3736 15.3177ZM22.0376 18.9896H21.1023L21.15 16.1362C21.4894 16.0008 21.8076 15.827 22.0947 15.6194L22.0376 18.9896ZM25.043 8.70563V14.9121L24.2771 18.9896H23.2147L23.2788 15.1586C23.2829 14.9141 23.0824 14.7024 22.8023 14.6554C22.6153 14.6246 22.4265 14.5766 22.2412 14.5135C21.7512 14.3457 21.3118 14.0719 20.97 13.7208C20.8582 13.6056 20.693 13.5395 20.5188 13.5395H13.2883C12.9819 13.5395 12.7272 13.7411 12.7019 14.0032L12.2265 18.9896H11.2619L10.786 14.0032C10.7606 13.7411 10.5059 13.5395 10.1995 13.5395H10.196C10.1871 13.539 10.1777 13.539 10.1689 13.539C9.52243 13.539 8.89595 13.3793 8.35712 13.0777C7.41065 12.5482 6.84534 11.6535 6.84534 10.684V10.3016H9.54593C10.443 10.3016 11.173 9.67461 11.173 8.9037V8.46719C11.173 7.96602 10.8641 7.52549 10.4012 7.27845L10.6335 5.82853C10.6877 5.84317 21.7194 5.85077 21.7194 5.85077C22.3529 5.85077 22.9653 6.0493 23.1958 6.14833C23.2005 6.15035 23.8529 6.39638 24.427 7.05064C24.8494 7.53203 25.043 8.29086 25.043 8.70563ZM28.25 11.4651L28.5294 10.6719L28.8089 11.4651H28.25Z" fill="#C9D0DC" stroke="#C9D0DC" stroke-width="0.00064"/>
<path d="M23.2983 8.08623C23.2777 8.04632 23.0624 7.72953 22.7877 7.53201C22.7035 7.47137 22.4865 7.36881 22.4865 7.36881C22.2483 7.26676 21.99 7.21472 21.7195 7.21472H18.8959C18.5712 7.21472 18.3077 7.44108 18.3077 7.71992C18.3077 7.99881 18.5713 8.22512 18.8959 8.22512H21.7195C21.9365 8.22512 22.0906 8.32868 22.1741 8.42722C22.243 8.50804 22.2783 8.63385 22.2783 8.70561C22.2783 8.9845 22.5418 9.21081 22.8665 9.21081C23.1912 9.21081 23.4547 8.9845 23.4547 8.70561C23.4547 8.48886 23.4017 8.27972 23.2983 8.08623Z" fill="#C9D0DC" stroke="#C9D0DC" stroke-width="0.00064"/>
</svg>
