<svg width="34" height="24" viewBox="0 0 34 24" fill="none" xmlns="http://www.w3.org/2000/svg">
<path d="M32 12C32 16.714 32 19.0711 30.2426 20.5355C28.4853 22 25.6568 22 20 22H14C8.34314 22 5.51473 22 3.75736 20.5355C2 19.0711 2 16.714 2 12C2 7.28595 2 4.92894 3.75736 3.46446C5.51473 2 8.34314 2 14 2H20C25.6568 2 28.4853 2 30.2426 3.46446C31.2224 4.28094 31.6559 5.37486 31.8478 7" stroke="#C9D0DC" stroke-width="2.56" stroke-linecap="round"/>
<path d="M11.375 16.375C11.375 16.8928 11.8787 17.3125 12.5 17.3125C13.1213 17.3125 13.625 16.8928 13.625 16.375H11.375ZM15.875 10.0313C15.875 10.549 16.3787 10.9688 17 10.9688C17.6213 10.9688 18.125 10.549 18.125 10.0313H15.875ZM6.87501 10.0313C6.87501 10.549 7.37869 10.9688 8.00001 10.9688C8.62132 10.9688 9.12501 10.549 9.12501 10.0313H6.87501ZM9.50001 15.4375C8.87869 15.4375 8.37501 15.8573 8.37501 16.375C8.37501 16.8928 8.87869 17.3125 9.50001 17.3125V15.4375ZM15.5 17.3125C16.1213 17.3125 16.625 16.8928 16.625 16.375C16.625 15.8573 16.1213 15.4375 15.5 15.4375V17.3125ZM10.8875 8.56251H12.5V6.68751H10.8875V8.56251ZM12.5 8.56251H14.1125V6.68751H12.5V8.56251ZM13.625 16.375V7.62501H11.375V16.375H13.625ZM14.1125 8.56251C14.7943 8.56251 15.2011 8.56422 15.4948 8.59475C15.7609 8.62241 15.7747 8.66038 15.7492 8.64141L17.2436 7.23983C16.7918 6.90525 16.2664 6.78541 15.7733 6.73417C15.3079 6.6858 14.7358 6.68751 14.1125 6.68751V8.56251ZM18.125 10.0313C18.125 9.51188 18.1271 9.03508 18.0691 8.64728C18.0076 8.23644 17.8637 7.79848 17.4622 7.42196L15.7804 8.66743C15.7576 8.64608 15.8032 8.65761 15.8363 8.87936C15.8729 9.12414 15.875 9.4631 15.875 10.0313H18.125ZM15.7492 8.64141C15.7601 8.64956 15.7706 8.65824 15.7804 8.66743L17.4622 7.42196C17.3938 7.35772 17.3207 7.29691 17.2436 7.23983L15.7492 8.64141ZM10.8875 6.68751C10.2642 6.68751 9.6921 6.6858 9.22674 6.73417C8.73372 6.78541 8.20818 6.90525 7.75635 7.23983L9.25092 8.64141C9.2253 8.66038 9.23913 8.62241 9.50523 8.59475C9.79897 8.56422 10.2057 8.56251 10.8875 8.56251V6.68751ZM9.12501 10.0313C9.12501 9.4631 9.12706 9.12414 9.16369 8.87936C9.19689 8.65761 9.24246 8.64608 9.21969 8.66743L7.5378 7.42196C7.13629 7.79848 6.99249 8.23644 6.931 8.64728C6.87295 9.03508 6.87501 9.51188 6.87501 10.0313H9.12501ZM7.75635 7.23983C7.67926 7.29691 7.60629 7.35772 7.5378 7.42196L9.21969 8.66743C9.22948 8.65826 9.23991 8.64957 9.25092 8.64141L7.75635 7.23983ZM9.50001 17.3125H15.5V15.4375H9.50001V17.3125Z" fill="#C9D0DC"/>
</svg>
