<svg width="30" height="20" viewBox="0 0 30 20" fill="none" xmlns="http://www.w3.org/2000/svg">
<path fill-rule="evenodd" clip-rule="evenodd" d="M23.7565 9.99795C23.7565 12.6825 22.9045 14.9746 21.198 16.8662C19.4891 18.7606 17.4237 19.7077 15.0019 19.7077C12.5899 19.7077 10.5245 18.7633 8.81316 16.8662C7.10424 14.9746 6.2449 12.6825 6.2449 9.99795C6.2449 7.32154 7.1018 5.04023 8.81316 3.14049C10.5294 1.24616 12.5923 0.293586 15.0019 0.293586C17.4237 0.293586 19.4891 1.24346 21.198 3.14049C22.902 5.04023 23.7565 7.32154 23.7565 9.99795ZM3.99644 8.20917C4.76546 7.62734 5.15118 6.8669 5.08527 5.12683V0.653509C5.07794 0.0283806 4.05503 -0.0473924 4.00376 0.653509L3.9647 4.2825C3.96226 4.96175 3.04188 4.9834 3.04433 4.2825L3.08339 0.529024C3.07118 -0.142109 2.09465 -0.209763 2.08245 0.529024C2.08245 1.5709 2.04338 3.24062 2.04338 4.2825C2.09221 4.9401 1.23775 5.0267 1.25972 4.2825L1.29878 0.55338C1.27681 0.0473239 0.773898 -0.13399 0.432114 0.104154C0.0683569 0.361241 0.141597 0.878122 0.126949 1.31382L0 5.595C0.0195306 6.83984 0.31493 7.85195 1.19381 8.28223C1.32808 8.34718 1.51362 8.3986 1.72845 8.43378L1.42573 18.8742C1.40864 19.4939 1.86517 20 2.39982 20H2.52188C3.12489 20 3.63512 19.429 3.61804 18.7335L3.35193 8.43107C3.63268 8.38236 3.86461 8.3093 3.99644 8.20917ZM26.0586 18.5603L26.044 9.18339C23.0778 7.28365 24.0226 -0.0365677 26.9912 0.00402499C30.5995 0.0500301 31.0267 8.25247 27.9238 9.15362L28.1533 18.5982C28.1972 20.3843 26.0611 20.5494 26.0586 18.5603ZM20.0994 9.98983C20.0994 11.554 19.6038 12.8882 18.6053 13.995C17.6092 15.0964 16.4057 15.6512 14.9946 15.6512C13.5933 15.6512 12.3897 15.0964 11.3936 13.995C10.3976 12.8882 9.89955 11.554 9.89955 9.98983C9.89955 8.43649 10.3976 7.10234 11.3936 6.00092C12.3921 4.89951 13.5933 4.34474 14.9946 4.34474C17.829 4.34745 20.0994 6.84525 20.0994 9.98983ZM21.2932 9.98983C21.2932 8.06845 20.6829 6.42579 19.4549 5.06458C18.2269 3.70337 16.7401 3.02683 14.9946 3.02683C13.2539 3.02683 11.772 3.70337 10.5514 5.06458C9.3234 6.42579 8.70575 8.06845 8.70575 9.98983C8.70575 11.9166 9.3234 13.5593 10.5514 14.9259C11.772 16.2898 13.2539 16.9745 14.9946 16.9745C16.7377 16.9745 18.2245 16.2898 19.4549 14.9259C20.6804 13.5566 21.2932 11.9139 21.2932 9.98983Z" fill="#C9D0DC" stroke="#C9D0DC" stroke-width="0.00064"/>
</svg>
