<svg width="60" height="60" viewBox="0 0 60 60" fill="none" xmlns="http://www.w3.org/2000/svg">
<path d="M46.3243 10.0982C45.6265 10.0836 44.8972 10.1253 44.1659 10.2336C34.9163 6.07684 31.926 0 27.7958 0C24.2229 0 24.4011 6.55791 38.0303 13.5802C38.0051 13.6115 37.9821 13.6427 37.9569 13.676C36.9175 15.0922 23.3177 7.22641 19.1288 7.23474C13.4876 7.24723 21.7628 20.4963 35.2411 18.4159C36.5194 18.218 34.6083 20.3089 34.7655 21.498C34.8136 21.8646 34.9017 22.2165 35.0232 22.5518C21.8739 22.2103 13.6741 24.5969 8.90685 28.3288C5.52051 26.4482 5.40316 19.8133 1.91413 21.5293C-1.79492 23.3536 0.491282 33.154 3.6555 36.4028C1.51389 45.6326 8.36411 56.6492 13.8103 60H56.7872C59.1174 58.3569 57.8077 57.0636 56.7872 55.8412C55.5257 54.3313 51.6301 53.3442 48.4198 53.7628C43.7468 51.8719 59.8278 41.3238 48.4764 28.8765C50.6159 28.9973 53.0572 28.8286 55.182 28.1642C55.2302 28.1976 55.2805 28.233 55.3308 28.2663L55.4251 28.0872C57.376 27.4354 59.0357 26.3462 59.9032 24.6552C60.9719 22.5768 52.9817 10.2398 46.3264 10.1003L46.3243 10.0982ZM48.4114 20.4755C47.2568 20.4755 46.3201 19.5446 46.3201 18.3971C46.3201 17.2497 47.2568 16.3188 48.4114 16.3188C49.566 16.3188 50.5027 17.2497 50.5027 18.3971C50.5027 19.5446 49.566 20.4755 48.4114 20.4755Z" fill="#C9D0DC"/>
</svg>
