<svg width="30" height="20" viewBox="0 0 30 20" fill="none" xmlns="http://www.w3.org/2000/svg">
<path d="M0.00149985 15.7024C0.00149985 16.0986 0.181482 16.4415 0.541446 16.7311C0.90141 17.0206 1.35136 17.1578 1.89131 17.1425H3.75112C5.031 17.1425 6.25087 16.952 7.41076 16.571C8.57064 16.19 9.56054 15.6795 10.3805 15.0394C11.2004 14.3994 11.8703 13.6374 12.3903 12.7535C12.9102 11.8695 13.1602 10.9475 13.1402 9.98743C13.1402 8.81396 13.6801 7.80813 14.76 6.96994C15.8399 6.13175 17.1698 5.71265 18.7496 5.71265H22.4993V7.12996C22.4993 7.44999 22.6192 7.72431 22.8592 7.95291C23.0992 8.18151 23.3692 8.34914 23.6691 8.45582C23.9691 8.5625 24.3191 8.59298 24.719 8.54726C25.119 8.50154 25.449 8.372 25.7089 8.15865L29.4586 5.30118C29.8385 4.99638 30.0185 4.65348 29.9985 4.27249C29.9785 3.89149 29.7985 3.55622 29.4586 3.26666L25.7089 0.40919C25.409 0.195832 25.069 0.0662933 24.689 0.0205738C24.3091 -0.0251457 23.9591 0.00533396 23.6391 0.112013C23.3192 0.218692 23.0492 0.38633 22.8292 0.614927C22.6092 0.843525 22.4993 1.11022 22.4993 1.41502V2.85518H18.7496C17.4898 2.85518 16.2799 3.04568 15.12 3.42668C13.9601 3.80767 12.9602 4.31059 12.1203 4.93542C11.2804 5.56026 10.6104 6.32225 10.1105 7.2214C9.61054 8.12055 9.37056 9.04256 9.39056 9.98743C9.39056 11.1761 8.84062 12.1896 7.74073 13.0278C6.64084 13.866 5.31097 14.2851 3.75112 14.2851H1.89131C1.37136 14.2851 0.921408 14.4222 0.541446 14.6965C0.161484 14.9709 -0.0184981 15.3061 0.00149985 15.7024ZM0.00149985 4.29535C0.00149985 4.69158 0.181482 5.02686 0.541446 5.30118C0.90141 5.57549 1.35136 5.71265 1.89131 5.71265H3.75112C4.63104 5.71265 5.44096 5.85743 6.18088 6.14699C6.92081 6.43654 7.57074 6.83278 8.13069 7.3357C8.55064 6.36035 9.17058 5.48406 9.9905 4.70682C8.17068 3.4724 6.09089 2.85518 3.75112 2.85518H1.89131C1.37136 2.85518 0.921408 2.99996 0.541446 3.28952C0.161484 3.57908 -0.0184981 3.91435 0.00149985 4.29535ZM12.5402 15.3138C14.3201 16.5329 16.3899 17.1425 18.7496 17.1425H22.4993V18.5827C22.4993 18.8875 22.6192 19.1618 22.8592 19.4056C23.0992 19.6495 23.3692 19.8171 23.6691 19.9086C23.9691 20 24.3191 20.0229 24.719 19.9771C25.119 19.9314 25.449 19.8019 25.7089 19.5885L29.4586 16.7311C29.8385 16.4415 30.0185 16.0986 29.9985 15.7024C29.9785 15.3061 29.7985 14.9785 29.4586 14.7194L25.7089 11.8619C25.409 11.6333 25.069 11.4962 24.689 11.4505C24.3091 11.4047 23.9591 11.4352 23.6391 11.5419C23.3192 11.6486 23.0492 11.8238 22.8292 12.0677C22.6092 12.3115 22.4993 12.5782 22.4993 12.8678V14.2851H18.7496C17.8897 14.2851 17.0798 14.1479 16.3199 13.8736C15.5599 13.5993 14.92 13.203 14.4001 12.6849C13.9601 13.6602 13.3402 14.5365 12.5402 15.3138Z" fill="#C9D0DC" stroke="#C9D0DC" stroke-width="0.00064"/>
</svg>
