<svg width="82" height="62" viewBox="0 0 82 62" fill="none" xmlns="http://www.w3.org/2000/svg">
<path d="M14.4558 32.3998C16.0122 31.661 17.5002 31.1891 18.818 30.9993C23.1503 25.6918 29.003 22.4306 35.4349 22.4306C40.4669 22.4306 45.1437 24.4275 49.0158 27.8374C54.7492 27.2883 59.5632 21.7327 60.542 14.3188L60.5514 14.318C61.3201 8.89085 64.5964 4.78029 68.5732 4.70224C73.1769 4.612 80.3317 9.92637 80.9252 16.5693C81.7774 26.106 75.1835 26.2424 69.3737 26.2418C66.7305 32.6055 62.4365 37.5989 57.2948 40.3531C58.7621 44.3712 59.5842 48.8553 59.5842 53.5829C59.5842 57.6788 57.011 61 53.8344 61C50.6579 61 48.0845 57.6788 48.0845 53.5829C48.0845 49.2536 46.7682 45.316 44.628 42.392C41.0698 41.6804 39.312 39.9165 38.7825 37.8495C37.692 37.462 36.566 37.2654 35.4349 37.265C28.4612 37.265 22.7853 44.585 22.7853 53.5829C22.7853 57.6788 20.2121 61 17.0354 61C13.8587 61 11.2855 57.6788 11.2855 53.5829C11.2855 50.0357 11.7487 46.6257 12.5992 43.4464C7.36384 42.3641 1.18288 39.1602 1.00799 36.3703C0.780958 32.7468 5.39506 36.701 14.4558 32.3998Z" fill="#C9D0DC" stroke="#C9D0DC" stroke-width="0.64"/>
<path d="M68.8992 8.41608C67.6758 8.41608 66.684 9.69548 66.684 11.2737V14.7865C66.684 16.3647 67.6758 17.6441 68.8992 17.6441C70.1226 17.6441 71.1144 16.3647 71.1144 14.7865V11.2737C71.1146 9.69548 70.1228 8.41608 68.8992 8.41608Z" fill="#C9D0DC" stroke="#C9D0DC" stroke-width="0.64"/>
<path d="M17.5107 22.6138C17.5448 22.5229 17.5768 22.4345 17.6122 22.3424C21.3929 12.484 27.2735 7.8074 28.5046 9.0299C29.4975 10.016 27.5455 10.2554 25.5612 20.0334C27.5236 19.6237 29.5839 19.332 31.717 19.1745C32.7746 13.5144 34.3262 8.83905 35.4351 8.83905C36.5439 8.83905 38.0955 13.5144 39.1532 19.1745C41.2863 19.332 43.3466 19.6237 45.3089 20.0334C43.3247 10.2554 41.3725 10.016 42.3655 9.0299C43.5967 7.8074 49.4773 12.4842 53.258 22.3424C53.2933 22.4345 53.3252 22.5231 53.3594 22.6138C60.1224 25.6829 64.4661 30.4491 64.4661 35.8013C64.4661 45.0594 51.4685 52.5647 35.4352 52.5647C19.402 52.5647 6.40436 45.0594 6.40436 35.8013C6.40404 30.4491 10.7478 25.6829 17.5107 22.6138Z" fill="#C9D0DC" stroke="#C9D0DC" stroke-width="0.64"/>
<path d="M35.224 1.03679V1C35.235 1 35.2452 1.00366 35.2563 1.00366C35.2673 1.00366 35.2774 1 35.2884 1V1.00732C35.3366 1.00732 35.3867 1.0187 35.4349 1.01931C35.4831 1.0189 35.5334 1.00732 35.5816 1.00732V1C35.5926 1 35.6027 1.00366 35.6137 1.00366C35.6248 1.00366 35.646 1.03679 35.646 1.03679C46.7181 1.34897 60.6719 14.381 60.6719 31.6732C60.6719 34.015 58.4021 46.2979 35.6457 46.4558V46.4704C35.6344 46.4704 35.6249 46.4694 35.6136 46.4694C35.6022 46.4694 35.593 46.4704 35.5816 46.4704V46.4682C35.5298 46.4682 35.4863 46.4631 35.4348 46.4631C35.3832 46.4631 35.3399 46.4682 35.2881 46.4682V46.4704C35.2767 46.4704 35.2674 46.4694 35.2561 46.4694C35.2448 46.4694 35.2353 46.4704 35.224 46.4704V46.4558C12.4678 46.2979 10.1978 34.015 10.1978 31.6732C10.1981 14.381 24.1519 1.34897 35.224 1.03679ZM46.7015 28.8528C48.1854 40.9579 52.4009 34.7672 53.632 33.5447C54.8631 32.3222 55.9764 29.4315 53.2576 22.3422C49.477 12.4838 43.5963 7.80717 42.3652 9.02967C41.1341 10.2522 44.4303 10.3231 46.7015 28.8528ZM35.4349 38.6091C37.274 38.6091 40.3321 39.472 40.3321 30.5861C40.3321 21.7002 37.274 8.83903 35.4349 8.83903C33.5958 8.83903 30.5377 21.7004 30.5377 30.5861C30.5377 39.472 33.5958 38.6091 35.4349 38.6091ZM17.2379 33.5447C18.469 34.7672 22.6845 40.9579 24.1683 28.8528C26.4396 10.3231 29.7356 10.2522 28.5045 9.02967C27.2734 7.80717 21.3927 12.484 17.612 22.3422C14.8935 29.4317 16.0067 32.3222 17.2379 33.5447Z" fill="#C9D0DC" stroke="#C9D0DC" stroke-width="0.64"/>
</svg>
